<svg width="380" height="171" viewBox="0 0 380 171" fill="none" xmlns="http://www.w3.org/2000/svg">
<g clip-path="url(#clip0_46802_1750)">
<path d="M360.015 140.633C361.014 140.835 365.779 146.165 369.63 150.638C373.013 154.567 374.889 159.64 374.908 164.913C374.973 182.616 374.515 221.546 373.343 228.249C371.902 236.487 364.337 265.318 362.537 266.815C360.736 268.313 348.488 268.687 348.488 268.687C348.488 268.687 346.687 170.962 348.488 170.587C350.289 170.213 360.015 140.633 360.015 140.633Z" fill="#13C2C2"/>
<path opacity="0.3" d="M360.015 140.633C361.014 140.835 365.779 146.165 369.63 150.638C373.013 154.567 374.889 159.64 374.908 164.913C374.973 182.616 374.515 221.546 373.343 228.249C371.902 236.487 364.337 265.318 362.537 266.815C360.736 268.313 348.488 268.687 348.488 268.687C348.488 268.687 346.687 170.962 348.488 170.587C350.289 170.213 360.015 140.633 360.015 140.633Z" fill="black"/>
<path d="M41.9129 140.633C40.8745 140.835 35.9216 146.165 31.9189 150.638C28.4025 154.567 26.4524 159.64 26.4331 164.913C26.3661 182.616 26.8412 221.546 28.0594 228.249C29.5567 236.487 37.4199 265.318 39.2919 266.815C41.1638 268.313 53.8946 268.687 53.8946 268.687C53.8946 268.687 55.7665 170.962 53.8946 170.587C52.0227 170.213 41.9129 140.633 41.9129 140.633Z" fill="#13C2C2"/>
<path opacity="0.3" d="M41.9129 140.633C40.8745 140.835 35.9216 146.165 31.9189 150.638C28.4025 154.567 26.4524 159.64 26.4331 164.913C26.3661 182.616 26.8412 221.546 28.0594 228.249C29.5567 236.487 37.4199 265.318 39.2919 266.815C41.1638 268.313 53.8946 268.687 53.8946 268.687C53.8946 268.687 55.7665 170.962 53.8946 170.587C52.0227 170.213 41.9129 140.633 41.9129 140.633Z" fill="black"/>
<path d="M40.7343 230.239C40.7343 230.239 38.0472 151.53 40.4348 136.638C42.4732 123.927 78.1411 52.9011 88.5472 32.3659C91.8748 25.799 96.6998 20.1376 102.739 16.1776C106.968 13.4052 112.181 11.1313 118.036 10.9516C126.993 10.6765 182.502 10.8592 200.824 10.9283C219.147 10.8592 274.655 10.6765 283.613 10.9516C289.468 11.1313 294.681 13.4052 298.91 16.1776C304.949 20.1366 309.774 25.799 313.102 32.3659C323.508 52.9021 359.176 123.927 361.214 136.638C363.602 151.531 360.914 230.239 360.914 230.239L365.094 240.789L356.736 271.194C356.736 271.194 314.948 275.538 307.784 275.538C300.62 275.538 294.65 268.092 294.65 268.092L206.693 270.83V271.195L200.824 271.012L194.956 271.195V270.83L106.998 268.092C106.998 268.092 101.028 275.538 93.8645 275.538C86.7007 275.538 44.9126 271.194 44.9126 271.194L36.555 240.789L40.7343 230.239Z" fill="#13C2C2"/>
<path d="M317.594 103.642L307.481 80.1947C305.415 75.4052 300.836 72.3223 295.786 72.3223H106.509C101.632 72.3223 97.1762 75.2002 95.017 79.747L84.0484 102.841L317.594 103.642Z" fill="#263238"/>
<path opacity="0.8" d="M96.2604 36.9275C100.785 26.4452 110.863 19.7585 121.915 19.9128H279.717C290.769 19.7585 300.847 26.4452 305.371 36.9275L332.219 99.131L206.684 100.502C206.684 100.579 206.684 100.63 206.684 100.63L200.815 100.566L194.947 100.63C194.947 100.63 194.947 100.578 194.947 100.502L69.4121 99.131L96.2604 36.9275Z" fill="white"/>
<path d="M342.452 135.057C342.452 135.057 354.469 141.107 357.223 148.62C359.977 156.134 359.726 169.925 357.223 174.608C354.719 179.292 338.109 184.043 322.426 185.797C317.461 186.352 296.312 187.958 294.138 185.797C293.234 184.898 291.384 169.925 296.391 163.419C301.397 156.915 342.452 135.057 342.452 135.057Z" fill="white"/>
<path d="M342.818 93.0394C342.818 93.0394 348.338 83.3661 350.285 82.8037C352.233 82.2414 371.363 83.5813 374.958 83.9975C376.217 84.1427 380.583 85.9537 379.935 90.3401C379.285 94.7265 378.311 101.813 373.875 103.95C369.438 106.087 367.877 105.525 361.407 105.75C354.938 105.975 345.524 105.413 344.766 104.625C344.009 103.837 343.9 102.713 343.9 102.713L340.87 104.849L337.515 97.6511L342.818 93.0394Z" fill="#13C2C2"/>
<path d="M335.381 107.797C335.381 107.797 340.829 117.193 343.613 124.814C345.152 129.027 343.647 133.745 339.946 136.279C339.946 136.279 304.328 156.265 295.987 162.995" stroke="#263238" stroke-miterlimit="10"/>
<path d="M304.32 100.784C304.154 99.8501 300.76 82.7968 299.116 74.5377C298.602 71.9572 296.524 70.1198 294.109 70.1107C282.757 70.068 251.195 69.9635 240.303 70.0823C238.123 70.1056 236.368 72.0445 236.368 74.427L233.54 100.784H304.32Z" fill="#263238"/>
<path d="M253.764 65.6046H277.85C282.821 65.6046 286.852 61.5745 286.852 56.6034V46.9504C286.852 41.9793 282.821 37.9492 277.85 37.9492H253.764C248.793 37.9492 244.763 41.9793 244.763 46.9504V56.6034C244.763 61.5745 248.793 65.6046 253.764 65.6046Z" fill="#263238"/>
<g opacity="0.2">
<path d="M304.32 100.784C304.154 99.8501 300.76 82.7968 299.116 74.5377C298.602 71.9572 296.524 70.1198 294.109 70.1107C282.757 70.068 251.195 69.9635 240.303 70.0823C238.123 70.1056 236.368 72.0445 236.368 74.427L233.54 100.784H304.32Z" fill="white"/>
<path d="M253.764 65.6046H277.85C282.821 65.6046 286.852 61.5745 286.852 56.6034V46.9504C286.852 41.9793 282.821 37.9492 277.85 37.9492H253.764C248.793 37.9492 244.763 41.9793 244.763 46.9504V56.6034C244.763 61.5745 248.793 65.6046 253.764 65.6046Z" fill="white"/>
</g>
<path opacity="0.3" d="M340.104 105.465L343.899 102.711C344.024 103.283 344.265 104.326 345.206 104.841C346.085 105.322 347.633 105.29 348.712 105.389L350.141 108.521C350.141 108.521 347.249 107.426 345.143 106.427C343.038 105.428 343.212 104.254 343.212 104.254L340.104 105.465Z" fill="black"/>
<path opacity="0.3" d="M341.311 89.5801L342.875 92.8762C341.72 94.3055 337.957 98.5986 337.957 98.5986L341.311 89.5801Z" fill="black"/>
<path d="M60.0651 135.057C60.0651 135.057 47.5748 141.107 44.7121 148.62C41.8494 156.134 42.1103 169.925 44.7121 174.608C47.3139 179.292 64.5804 184.043 80.8814 185.797C86.0424 186.352 108.025 187.958 110.286 185.797C111.226 184.898 113.149 169.925 107.944 163.419C102.74 156.915 60.0651 135.057 60.0651 135.057Z" fill="white"/>
<path d="M59.6909 93.0394C59.6909 93.0394 53.9544 83.3661 51.9302 82.8037C49.905 82.2414 30.0205 83.5813 26.2828 83.9975C24.9743 84.1427 20.4356 85.9537 21.1107 90.3401C21.7857 94.7265 22.7978 101.813 27.4096 103.95C32.0214 106.087 33.6446 105.525 40.3688 105.75C47.0931 105.975 56.879 105.413 57.6668 104.625C58.4545 103.837 58.5662 102.713 58.5662 102.713L61.7161 104.849L65.2031 97.6511L59.6909 93.0394Z" fill="#13C2C2"/>
<path opacity="0.3" d="M198.133 171.038V170.984C198.133 170.984 200.343 171.023 204.119 171.038C207.894 171.023 210.105 170.984 210.105 170.984V171.038C231.785 170.956 277.057 169.919 296 162.996C296 162.996 290.935 180.2 286.715 185.074C282.494 189.949 277.71 193.389 266.738 194.536C257.651 195.486 230.891 196.492 210.105 197.135C210.102 197.135 210.099 197.135 210.096 197.135C205.783 197.269 201.72 197.043 198.134 197.141C177.031 196.897 150.628 195.49 141.501 194.536C130.528 193.389 125.744 189.949 121.524 185.074C117.305 180.2 112.239 162.996 112.239 162.996C131.18 169.919 176.453 170.956 198.133 171.038Z" fill="black"/>
<path d="M66.4417 107.119C66.4417 107.119 61.8421 117.065 58.9317 124.657C57.2933 128.929 58.8617 133.763 62.6826 136.281C62.6826 136.281 100.19 158.067 113.156 163.326" stroke="#263238" stroke-miterlimit="10"/>
<path d="M105.193 98.3368C105.369 97.3735 108.937 79.7781 110.666 71.256C111.206 68.5933 113.391 66.697 115.931 66.6879C127.867 66.6432 161.053 66.5356 172.506 66.6585C174.798 66.6828 176.643 68.6826 176.643 71.1413L179.617 98.3368H105.193Z" fill="#263238"/>
<path opacity="0.2" d="M105.193 98.3368C105.369 97.3735 108.937 79.7781 110.666 71.256C111.206 68.5933 113.391 66.697 115.931 66.6879C127.867 66.6432 161.053 66.5356 172.506 66.6585C174.798 66.6828 176.643 68.6826 176.643 71.1413L179.617 98.3368H105.193Z" fill="white"/>
<path d="M156.522 63.8839H128.288C123.317 63.8839 119.287 59.8538 119.287 54.8826V43.0715C119.287 38.1004 123.317 34.0703 128.288 34.0703H156.522C161.493 34.0703 165.523 38.1004 165.523 43.0715V54.8826C165.523 59.8538 161.493 63.8839 156.522 63.8839Z" fill="#263238"/>
<path opacity="0.2" d="M156.522 63.8839H128.288C123.317 63.8839 119.287 59.8538 119.287 54.8826V43.0715C119.287 38.1004 123.317 34.0703 128.288 34.0703H156.522C161.493 34.0703 165.523 38.1004 165.523 43.0715V54.8826C165.523 59.8538 161.493 63.8839 156.522 63.8839Z" fill="white"/>
<path opacity="0.3" d="M62.5078 105.465L58.563 102.711C58.4321 103.283 58.1823 104.326 57.2047 104.841C56.2901 105.322 54.6821 105.29 53.5604 105.389L52.0763 108.521C52.0763 108.521 55.0821 107.426 57.2707 106.427C59.4594 105.428 59.2776 104.254 59.2776 104.254L62.5078 105.465Z" fill="black"/>
<path opacity="0.3" d="M61.2552 89.5801L59.6289 92.8762C60.8298 94.3055 64.7422 98.5986 64.7422 98.5986L61.2552 89.5801Z" fill="black"/>
<path opacity="0.2" d="M199.063 112.285C200.519 112.285 325.135 110.691 329.504 111.727C332.336 112.399 335.052 119.788 336.613 124.907C337.5 127.811 336.377 130.961 333.904 132.596C323.698 139.341 295.638 156.25 265.207 160.977C227.203 166.88 204.63 162.717 198.078 157.04C191.524 151.363 197.607 112.285 199.063 112.285Z" fill="white"/>
<path d="M164.255 69.4434C164.033 69.7753 159.497 89.6964 159.497 89.6964L164.193 104.844H183.82C183.82 104.844 172.543 77.4386 170.397 73.8978C168.281 70.4016 164.255 69.4434 164.255 69.4434Z" fill="#13C2C2"/>
<path d="M120.594 69.4434C120.815 69.7753 125.352 89.6964 125.352 89.6964L120.656 104.844H101.028C101.028 104.844 112.305 77.4386 114.451 73.8978C116.568 70.4016 120.594 69.4434 120.594 69.4434Z" fill="#13C2C2"/>
<path d="M120.05 69.4408C124.461 69.1505 146.245 65.6188 164.25 69.4408L164.178 104.841H116.887L120.05 69.4408Z" fill="#13C2C2"/>
<path d="M129.942 36.9001C129.942 36.9001 120.386 31.5188 126.058 25.7478C130.531 21.1949 134.489 21.8598 140.475 22.9491C155.141 25.6199 154.288 31.731 154.288 31.731L129.942 36.9001Z" fill="#263238"/>
<path d="M148.623 67.6739C148.623 67.6739 147.84 62.048 151.133 52.2966C151.133 52.2865 150.623 52.0327 150.623 52.0216C151.078 50.6572 151.553 49.3994 151.998 48.3102C152.008 48.2787 152.008 48.2676 152.008 48.2676L138.135 56.0293C138.315 59.2016 136.916 65.2549 136.127 67.8029C136.127 67.8029 134.219 72.3963 140.418 72.8704C144.949 73.2176 148.623 67.6739 148.623 67.6739Z" fill="#B97964"/>
<path opacity="0.2" d="M137.703 60.4571L145.555 59.043C144.744 61.4306 142.479 64.2029 137.058 64.2019C137.058 64.2019 137.715 61.5189 137.703 60.4571Z" fill="black"/>
<path d="M152.393 41.7098C151.109 50.2349 150.556 55.069 145.834 59.0463C138.73 65.0275 128.718 60.2847 127.425 51.5221C126.262 43.6345 128.557 31.0183 137.259 28.4297C145.832 25.8787 153.677 33.1846 152.393 41.7098Z" fill="#B97964"/>
<path d="M154.389 31.4989C143.922 21.4176 133.275 27.0729 129.198 32.5993L147.46 32.8155C148.258 32.8013 148.71 33.6327 148.537 35.1524C148.537 35.1524 142.205 46.5057 150.933 52.8777C154.055 51.6829 154.69 46.4884 155.908 43.4704C157.722 38.9744 160.014 32.3557 154.389 31.4989Z" fill="#263238"/>
<path d="M155.148 49.1582C154.267 51.3052 152.475 52.834 150.699 53.5283C148.029 54.5729 147.323 51.692 147.803 49.013C148.236 46.601 149.207 43.7028 152.013 43.8033C154.777 43.9038 156.155 46.7046 155.148 49.1582Z" fill="#B97964"/>
<path d="M140.866 42.9514C140.788 43.8285 140.261 44.4944 139.687 44.4376C139.113 44.3817 138.71 43.6244 138.789 42.7474C138.866 41.8703 139.394 41.2043 139.967 41.2612C140.541 41.317 140.943 42.0743 140.866 42.9514Z" fill="#263238"/>
<path d="M132.006 42.6604C131.929 43.5375 131.401 44.2034 130.827 44.1465C130.254 44.0907 129.851 43.3334 129.929 42.4563C130.006 41.5793 130.534 40.9133 131.108 40.9702C131.681 41.026 132.084 41.7833 132.006 42.6604Z" fill="#263238"/>
<path d="M134.133 42.2734C134.133 42.2734 130.971 46.3868 129.924 48.0831C131.048 49.2941 133.196 48.9713 133.196 48.9713L134.133 42.2734Z" fill="#A24E3F"/>
<path d="M142.416 39.1574C142.279 39.2001 142.122 39.1696 142.009 39.063C140.659 37.8043 139.179 38.1413 139.163 38.1443C138.942 38.1971 138.718 38.0611 138.663 37.8408C138.608 37.6205 138.743 37.3982 138.963 37.3454C139.042 37.3261 140.896 36.9038 142.571 38.4661C142.739 38.6225 142.748 38.8823 142.592 39.0468C142.542 39.1006 142.481 39.1371 142.416 39.1574Z" fill="#263238"/>
<path d="M135.826 52.0205C137.248 52.1565 138.415 51.5444 139.609 50.582" stroke="#263238" stroke-width="0.75" stroke-miterlimit="10" stroke-linecap="round" stroke-linejoin="round"/>
<path opacity="0.2" d="M153.406 46.6105C153.106 46.0684 152.418 45.8177 151.805 45.9121C151.193 46.0065 150.657 46.3912 150.248 46.8562C149.757 47.4145 149.414 48.1028 149.265 48.8316" stroke="black" stroke-width="0.5" stroke-miterlimit="10" stroke-linecap="round" stroke-linejoin="round"/>
<path d="M127.811 38.4723C127.736 38.4489 127.667 38.4043 127.614 38.3383C127.47 38.1617 127.494 37.9008 127.669 37.7566C129.422 36.3101 131.229 36.8826 131.313 36.8978C131.529 36.9679 131.65 37.2003 131.583 37.4176C131.516 37.6338 131.288 37.7536 131.071 37.6866C130.997 37.6602 129.6 37.2359 128.192 38.3972C128.082 38.4895 127.938 38.5119 127.811 38.4723Z" fill="#263238"/>
<g opacity="0.2">
<path d="M140.293 48.5957C141.05 49.4139 141.454 50.5468 141.386 51.6584C141.386 51.6584 141.894 50.7772 141.669 49.8463C141.444 48.9155 140.293 48.5957 140.293 48.5957Z" fill="black"/>
</g>
<path d="M137.399 63.1845L132.454 67.6338L140.711 77.6481L152.641 67.5902L149.105 62.3906L141.648 68.6185L137.399 63.1845Z" fill="#13C2C2"/>
<path opacity="0.8" d="M137.399 63.1845L132.454 67.6338L140.711 77.6481L152.641 67.5902L149.105 62.3906L141.648 68.6185L137.399 63.1845Z" fill="white"/>
<path d="M166.688 106.638C166.688 92.3626 155.115 80.7891 140.838 80.7891C126.561 80.7891 114.989 92.3626 114.989 106.638" stroke="#263238" stroke-width="4" stroke-miterlimit="10"/>
<path d="M160.444 83.3207C160.444 83.3207 163.631 81.196 164.114 83.9968C164.114 83.9968 167.495 83.9968 167.398 87.0879C167.398 87.0879 170.103 87.4746 168.943 90.5647C168.943 90.5647 171.068 91.1444 169.619 93.8487C168.171 96.553 165.37 99.1609 163.92 98.8716C162.472 98.5823 162.472 96.6505 162.472 96.6505C162.472 96.6505 158.608 97.7133 159.381 94.5258C159.381 94.5258 158.221 95.4912 157.449 93.9461C156.676 92.4011 157.449 91.6286 157.449 91.6286C157.449 91.6286 156.483 92.6173 155.806 90.7221C155.131 88.8258 158.802 84.6729 160.444 83.3207Z" fill="#B97964"/>
<path d="M124.493 81.5609C124.493 81.5609 121.305 79.4363 120.822 82.237C120.822 82.237 117.442 82.237 117.538 85.3281C117.538 85.3281 114.834 85.7149 115.993 88.805C115.993 88.805 113.868 89.3846 115.317 92.0889C116.765 94.7932 119.566 97.4011 121.016 97.1118C122.464 96.8225 122.464 94.8907 122.464 94.8907C122.464 94.8907 126.328 95.9536 125.555 92.766C125.555 92.766 126.715 93.7324 127.487 92.1864C128.26 90.6413 127.487 89.8678 127.487 89.8678C127.487 89.8678 128.453 90.8566 129.129 88.9613C129.805 87.066 126.134 82.9131 124.493 81.5609Z" fill="#B97964"/>
<path d="M69.3504 98.7193L206.495 99.6582L331.917 98.6035L336.172 108.426L206.495 108.676L65.097 108.426L69.3504 98.7193Z" fill="#263238"/>
<path d="M217.625 170.889L215.814 180.241C203.903 182.234 192.19 182.368 180.714 180.241L179.161 170.889C190.488 171.263 203.546 170.998 217.625 170.889Z" fill="#263238"/>
<path d="M190.256 29.7684C190.454 28.3858 190.642 26.8986 190.846 25.8358C191.008 24.9851 191.757 24.375 192.623 24.375H217.27C218.137 24.375 218.885 24.9841 219.048 25.8358C219.251 26.8986 219.44 28.3858 219.638 29.7694C219.921 31.75 218.393 33.5234 216.393 33.5234H208.362H201.533H193.502C191.5 33.5224 189.973 31.7479 190.256 29.7684Z" fill="#263238"/>
<path d="M203.359 19.9121H206.531V25.4751H203.359V19.9121Z" fill="#263238"/>
<path opacity="0.3" d="M316.59 63.1042C316.611 63.1509 216.044 19.9102 216.044 19.9102H188.23L324.188 80.7057L316.59 63.1042Z" fill="white"/>
<path opacity="0.3" d="M328.099 89.583L161.434 19.9102H121.916L309.428 98.9416L331.992 98.6015L328.099 89.583Z" fill="white"/>
<path d="M9.09701 16.1642C16.3186 1.72324 33.8795 -4.12767 48.3204 3.09395C62.1683 10.0202 68.1104 26.4515 62.2052 40.5243L66.2031 48.8421L57.1977 48.5513C48.6435 58.2894 34.3041 61.4577 22.1661 55.3876C7.72629 48.166 1.87423 30.6051 9.09701 16.1642Z" fill="#FF8A48"/>
<path opacity="0.6" d="M9.09701 16.1642C16.3186 1.72324 33.8795 -4.12767 48.3204 3.09395C62.1683 10.0202 68.1104 26.4515 62.2052 40.5243L66.2031 48.8421L57.1977 48.5513C48.6435 58.2894 34.3041 61.4577 22.1661 55.3876C7.72629 48.166 1.87423 30.6051 9.09701 16.1642Z" fill="white"/>
<path d="M54.8924 1.52148C63.0232 6.44475 68.3688 15.6728 68.5938 25.1755" stroke="#FF8A48" stroke-width="0.75" stroke-miterlimit="10" stroke-linecap="round" stroke-linejoin="round"/>
<path d="M68.5436 29.5371C68.6855 30.9805 68.5251 32.4516 68.0763 33.8304" stroke="#FF8A48" stroke-width="0.75" stroke-miterlimit="10" stroke-linecap="round" stroke-linejoin="round"/>
<path d="M46.4844 26.6776C46.3217 25.2134 45.6168 23.8404 44.6395 22.7385C43.6818 21.6586 42.43 20.8059 41.0212 20.4944C39.5247 20.1633 37.8967 20.4771 36.6298 21.3401C35.8764 21.8536 35.258 22.5574 34.8299 23.3616C34.4145 22.6451 33.8457 22.0174 33.165 21.5467C31.905 20.6744 30.2782 20.349 28.7794 20.6709C27.3683 20.9732 26.1106 21.8178 25.1449 22.8908C24.1596 23.9858 23.4454 25.3542 23.2734 26.8172C23.0577 28.6495 23.405 30.6571 24.3499 32.2412C25.348 33.9142 26.9656 35.2688 28.6305 36.2807C31.4308 37.9814 35.1184 40.1101 35.1184 40.1101C35.1184 40.1101 38.2498 37.7852 41.0616 36.1041C42.7346 35.105 44.3614 33.7619 45.371 32.0959C46.3264 30.5163 46.6875 28.511 46.4844 26.6776Z" fill="#FF8A48"/>
</g>
<defs>
<clipPath id="clip0_46802_1750">
<rect width="380" height="171" fill="white" transform="matrix(-1 0 0 1 380 0)"/>
</clipPath>
</defs>
</svg>
