<svg width="103" height="136" viewBox="0 0 103 136" fill="none" xmlns="http://www.w3.org/2000/svg">
<path d="M5.55426 3.99578L98.2652 9.46891C100.643 9.6093 102.5 11.5788 102.5 13.9611V126.59C102.5 129.001 100.599 130.984 98.1896 131.086L5.47864 134.995C2.92125 135.103 0.789062 133.059 0.789062 130.499V8.48796C0.789062 5.89841 2.96921 3.84317 5.55426 3.99578Z" fill="#DBDBDB" stroke="#DBDBDB"/>
<path d="M5.55426 1.08611L98.2652 6.55924C100.643 6.69964 102.5 8.66915 102.5 11.0514V123.68C102.5 126.092 100.599 128.074 98.1896 128.176L5.47864 132.085C2.92125 132.193 0.789062 130.149 0.789062 127.589V5.57829C0.789062 2.98874 2.96921 0.933505 5.55426 1.08611Z" fill="white" stroke="#DBDBDB"/>
<path d="M52.8002 68.4454C37.0562 68.5723 23.9922 55.7384 23.9922 39.834C23.9922 23.9295 37.0562 11.3964 52.8002 11.8859C68.2084 12.365 80.5034 25.1901 80.5034 40.4846C80.5034 55.7791 68.2084 68.3212 52.8002 68.4454Z" fill="#D8DEE8"/>
<path d="M78.6306 40.4633C78.6306 54.7446 67.1827 66.3989 52.8039 66.4954C38.1331 66.5938 26.0195 54.6686 26.0195 39.8576C26.0195 25.0467 38.1331 13.4003 52.8039 13.8366C67.1828 14.2642 78.6306 26.182 78.6306 40.4633Z" fill="white"/>
<path opacity="0.74" d="M84.2445 78.515L19.9314 79.5032C18.1286 79.5309 16.6641 80.9855 16.6641 82.752C16.6641 84.5185 18.1286 85.9218 19.9314 85.8863L84.2445 84.6202C85.8897 84.5878 87.2206 83.1978 87.2206 81.5155C87.2206 79.833 85.8897 78.4897 84.2445 78.515Z" fill="#08979C"/>
<path d="M84.2406 90.5345L31.583 91.7916C29.8087 91.834 28.3672 93.2891 28.3672 95.0417C28.3672 96.7942 29.8088 98.1743 31.583 98.1242L84.2406 96.6397C85.8859 96.5933 87.2168 95.1919 87.2168 93.5096C87.2168 91.8273 85.8859 90.4953 84.2406 90.5345Z" fill="#D8DEE8"/>
<path d="M19.9729 98.4522L19.9133 98.4539C18.127 98.5042 16.6758 97.1759 16.6758 95.4869V95.2064C16.6758 93.5173 18.127 92.1134 19.9133 92.0708L19.9729 92.0694C21.7547 92.0268 23.196 93.3556 23.196 95.0372V95.3165C23.196 96.9981 21.7547 98.402 19.9729 98.4522Z" fill="#08979C"/>
<path d="M19.9402 99.0507C17.8024 99.1118 16.0586 97.4571 16.0586 95.3618C16.0586 93.2666 17.8024 91.5211 19.9402 91.4708C22.0717 91.4208 23.8014 93.076 23.8014 95.1603C23.8014 97.2445 22.0717 98.9897 19.9402 99.0507ZM19.9402 92.6677C18.478 92.7031 17.2865 93.8975 17.2865 95.3299C17.2865 96.7622 18.478 97.8945 19.9402 97.8539C21.3993 97.8134 22.5843 96.6192 22.5843 95.192C22.5843 93.7648 21.3993 92.6322 19.9402 92.6677Z" fill="#D8DEE8"/>
<path d="M84.2406 101.409L31.583 103.071C29.8087 103.127 28.3672 104.594 28.3672 106.346C28.3672 108.099 29.8088 109.468 31.583 109.404L84.2406 107.514C85.8859 107.455 87.2168 106.044 87.2168 104.361C87.2168 102.679 85.8859 101.357 84.2406 101.409Z" fill="#D8DEE8"/>
<path d="M19.9729 109.822L19.9133 109.824C18.127 109.888 16.6758 108.571 16.6758 106.882V106.602C16.6758 104.913 18.127 103.497 19.9133 103.441L19.9729 103.439C21.7547 103.383 23.196 104.701 23.196 106.382V106.662C23.196 108.343 21.7547 109.758 19.9729 109.822Z" fill="#08979C"/>
<path d="M19.9402 110.421C17.8024 110.498 16.0586 108.857 16.0586 106.762C16.0586 104.666 17.8024 102.907 19.9402 102.841C22.0717 102.774 23.8014 104.416 23.8014 106.501C23.8014 108.585 22.0717 110.343 19.9402 110.421ZM19.9402 104.038C18.478 104.084 17.2865 105.288 17.2865 106.72C17.2865 108.153 18.478 109.276 19.9402 109.224C21.3993 109.172 22.5843 107.969 22.5843 106.542C22.5843 105.114 21.3993 103.991 19.9402 104.038Z" fill="#D8DEE8"/>
<path d="M84.2406 112.283L31.583 114.351C29.8087 114.42 28.3672 115.897 28.3672 117.65C28.3672 119.403 29.8088 120.761 31.583 120.683L84.2406 118.388C85.8859 118.317 87.2168 116.895 87.2168 115.212C87.2168 113.53 85.8859 112.218 84.2406 112.283Z" fill="#D8DEE8"/>
<path d="M19.9729 121.191L19.9133 121.194C18.127 121.272 16.6758 119.966 16.6758 118.277V117.996C16.6758 116.307 18.127 114.881 19.9133 114.811L19.9729 114.808C21.7547 114.738 23.196 116.045 23.196 117.727V118.006C23.196 119.688 21.7547 121.114 19.9729 121.191Z" fill="#08979C"/>
<path d="M19.9402 121.79C17.8024 121.884 16.0586 120.256 16.0586 118.161C16.0586 116.066 17.8024 114.293 19.9402 114.21C22.0717 114.127 23.8014 115.756 23.8014 117.84C23.8014 119.924 22.0717 121.696 19.9402 121.79ZM19.9402 115.407C18.478 115.465 17.2865 116.678 17.2865 118.11C17.2865 119.542 18.478 120.656 19.9402 120.593C21.3993 120.53 22.5843 119.318 22.5843 117.89C22.5843 116.463 21.3993 115.349 19.9402 115.407Z" fill="#D8DEE8"/>
<mask id="mask0_47812_9902" style="mask-type:luminance" maskUnits="userSpaceOnUse" x="28" y="15" width="49" height="50">
<path d="M76.743 40.4421C76.743 53.6832 66.1212 64.4741 52.7976 64.5456C39.2237 64.6183 28.0312 53.5764 28.0312 39.8813C28.0312 26.1863 39.2237 15.402 52.7976 15.7874C66.1212 16.1656 76.743 27.2011 76.743 40.4421Z" fill="white"/>
</mask>
<g mask="url(#mask0_47812_9902)">
<path d="M26.0078 58.0215C26.0078 58.0215 49.5401 44.3189 78.619 57.9778C78.619 57.9778 74.9158 69.6957 52.7922 70.4813C29.9696 71.2918 26.0078 58.0215 26.0078 58.0215Z" fill="#08979C"/>
<path d="M48.6257 40.1182L47.7439 46.6603C47.488 50.8265 43.3555 52.3799 43.3555 52.3799C48.2071 58.1337 57.4789 57.9217 60.7204 52.4836C58.4803 51.644 55.9688 48.1909 55.8711 45.784L55.6444 40.199L48.6257 40.1182Z" fill="url(#paint0_linear_47812_9902)"/>
<path d="M59.3275 34.4658C59.3275 39.988 55.9925 45.8956 51.8571 45.8642C47.6978 45.8328 44.3086 39.8124 44.3086 34.2325C44.3086 28.6526 47.6979 25.6734 51.8571 25.7627C55.9925 25.8516 59.3275 28.9436 59.3275 34.4658Z" fill="url(#paint1_linear_47812_9902)"/>
<path d="M44.0726 35.6374C44.4888 35.5781 44.9045 35.5188 45.3201 35.4595C45.1293 34.9998 44.3412 32.9652 45.3201 31.212C46.2594 29.5297 48.4707 28.7433 50.1587 28.8875C52.0757 29.0513 53.226 29.9543 54.1879 29.2899C54.7283 28.9166 54.9033 28.2232 54.9651 27.6819C55.0077 28.0298 55.1044 28.5452 55.3534 29.1174C56.0686 30.7609 57.2782 31.1224 57.9368 32.2116C58.3802 32.9449 58.6685 34.1646 57.9368 36.2927C58.3021 36.2763 58.6671 36.2599 59.0319 36.2435C59.4171 35.0484 59.879 33.3521 60.1663 31.2723C60.5927 28.1843 60.8862 26.0588 59.6753 24.9948C59.434 24.7827 58.3667 23.9393 55.8115 24.6538C55.2127 24.0189 53.9509 22.8525 52.0089 22.2337C51.337 22.0197 48.0039 20.9577 45.0476 23.0156C43.0365 24.4154 41.4599 27.078 41.9668 29.3188C42.2348 30.5037 42.9677 31.0477 43.6126 33.3408C43.8847 34.3089 44.01 35.1217 44.0726 35.6374Z" fill="url(#paint2_linear_47812_9902)"/>
<path d="M58.2812 36.4893C58.2812 36.4893 58.7608 34.0771 60.2168 34.3398C61.6698 34.6019 59.5874 38.5345 58.2812 38.9947V36.4893Z" fill="url(#paint3_linear_47812_9902)"/>
<path d="M45.2342 36.3048C45.2342 36.3048 44.7456 33.8555 43.2581 34.0744C41.7674 34.2938 43.9018 38.3349 45.2342 38.8329V36.3048Z" fill="url(#paint4_linear_47812_9902)"/>
</g>
<defs>
<linearGradient id="paint0_linear_47812_9902" x1="51.9858" y1="42.3195" x2="52.0844" y2="61.4463" gradientUnits="userSpaceOnUse">
<stop offset="0.0036" stop-color="#F36F56"/>
<stop offset="1" stop-color="#FFC444"/>
</linearGradient>
<linearGradient id="paint1_linear_47812_9902" x1="54.7902" y1="16.0626" x2="49.9837" y2="45.7458" gradientUnits="userSpaceOnUse">
<stop offset="0.0036" stop-color="#F36F56"/>
<stop offset="1" stop-color="#FFC444"/>
</linearGradient>
<linearGradient id="paint2_linear_47812_9902" x1="52.2399" y1="22.1557" x2="49.904" y2="36.5816" gradientUnits="userSpaceOnUse">
<stop stop-color="#444B8C"/>
<stop offset="0.9964" stop-color="#26264F"/>
</linearGradient>
<linearGradient id="paint3_linear_47812_9902" x1="62.4538" y1="17.5901" x2="57.692" y2="46.9976" gradientUnits="userSpaceOnUse">
<stop offset="0.0036" stop-color="#F36F56"/>
<stop offset="1" stop-color="#FFC444"/>
</linearGradient>
<linearGradient id="paint4_linear_47812_9902" x1="47.5905" y1="14.5378" x2="42.729" y2="44.5609" gradientUnits="userSpaceOnUse">
<stop offset="0.0036" stop-color="#F36F56"/>
<stop offset="1" stop-color="#FFC444"/>
</linearGradient>
</defs>
</svg>
