<svg width="274" height="202" viewBox="0 0 274 202" fill="none" xmlns="http://www.w3.org/2000/svg">
<g opacity="0.4">
<g style="mix-blend-mode:plus-darker">
<path d="M164.585 105.381C150.836 97.4432 128.614 97.4432 114.954 105.381C114.89 105.419 114.827 105.455 114.765 105.494C105.97 110.68 102.975 117.931 105.76 124.537C107.24 128.053 110.359 131.389 115.112 134.132C128.863 142.072 151.09 142.072 164.752 134.132C178.411 126.194 178.337 113.32 164.585 105.381Z" fill="white"/>
<path d="M170.987 101.66C153.705 91.6821 125.68 91.6823 108.509 101.661C108.048 101.928 107.599 102.2 107.165 102.476L108.042 102.825C108.434 102.576 108.839 102.333 109.255 102.091C126.014 92.3524 153.378 92.3522 170.246 102.091C187.118 111.833 187.207 127.683 170.449 137.422C153.686 147.163 126.322 147.163 109.45 137.422C103.261 133.849 99.3276 129.453 97.6624 124.837L96.6016 124.875C98.2924 129.637 102.331 134.171 108.708 137.853C125.993 147.832 154.023 147.832 171.195 137.852C188.366 127.874 188.272 111.64 170.987 101.66Z" fill="white"/>
<path d="M177.231 98.0343C156.489 86.0587 122.84 86.0589 102.232 98.0347C101.386 98.5263 100.574 99.0321 99.7974 99.5483L102.134 100.475C102.804 100.036 103.501 99.6052 104.224 99.1848C123.741 87.8429 155.608 87.8429 175.252 99.1845C194.9 110.529 195.004 128.987 175.488 140.329C155.967 151.673 124.1 151.674 104.451 140.329C96.9874 136.02 92.3477 130.685 90.5295 125.101L87.707 125.205C89.5832 131.17 94.5042 136.879 102.472 141.479C123.219 153.457 156.868 153.457 177.48 141.479C198.087 129.503 197.978 110.012 177.231 98.0343Z" fill="white"/>
<path d="M189.991 90.6149C162.162 74.5475 117.024 74.5477 89.3752 90.6153C61.7219 106.686 61.869 132.831 89.6988 148.898C101.411 155.66 116.187 159.578 131.434 160.646L131.287 157.155C117.621 156.091 104.417 152.525 93.904 146.455C68.4092 131.735 68.2743 107.781 93.608 93.0591C118.937 78.3394 160.291 78.3394 185.786 93.0587C202.305 102.596 208.18 116.005 203.385 128.269L209.038 129.451C214.563 115.955 208.202 101.129 189.991 90.6149Z" fill="white"/>
<path d="M85.1301 151.559C54.7573 134.023 54.5945 105.491 84.7699 87.9551C114.945 70.419 164.206 70.4188 194.579 87.9545C224.952 105.49 225.11 134.023 194.935 151.559C164.759 169.095 115.503 169.095 85.1301 151.559ZM195.567 87.3802C180.588 78.732 160.71 73.9688 139.595 73.9688C118.481 73.9689 98.6567 78.7324 83.7748 87.3807C68.8929 96.029 60.7342 107.527 60.8051 119.757C60.8741 131.987 69.1601 143.487 84.1392 152.135C99.1182 160.783 118.998 165.545 140.113 165.545C161.223 165.545 181.049 160.783 195.931 152.134C210.813 143.486 218.97 131.986 218.903 119.757C218.834 107.527 210.546 96.0285 195.567 87.3802Z" fill="#E7E7E7"/>
<path d="M240.513 99.189L238.095 99.6056C248.86 117.156 245.253 137.01 227.241 152.955L229.262 153.789C240.641 143.776 246.715 132.041 246.644 119.757C246.604 112.642 244.503 105.709 240.513 99.189ZM211.33 73.9299C191.59 63.5675 166.278 57.8975 139.499 57.8975C110.974 57.8976 84.1888 64.3312 64.0845 76.0146C43.9756 87.7006 32.9564 103.237 33.0514 119.758C33.1423 136.282 44.3387 151.817 64.5745 163.5C84.8148 175.186 111.67 181.62 140.196 181.618C157.277 181.62 173.729 179.312 188.501 174.951L187.27 173.686C148.191 185.143 99.0723 181.411 66.3065 162.493C25.4919 138.929 25.2761 100.587 65.8277 77.0206C105.146 54.1714 168.574 53.4764 209.595 74.9371L211.33 73.9299Z" fill="#E7E7E7"/>
<path d="M226.237 69.5544C214.503 62.7795 200.827 57.5322 185.604 53.9605C170.902 50.5116 155.374 48.7625 139.454 48.7627C123.534 48.7627 108.028 50.5107 93.363 53.9608C78.18 57.5327 64.5633 62.78 52.9051 69.5551C41.2422 76.3327 32.2324 84.2348 26.1133 93.0422C20.2046 101.548 17.2357 110.537 17.2898 119.757C17.3418 128.978 20.4097 137.968 26.4142 146.471C26.8038 147.024 27.2044 147.572 27.6161 148.117L29.9854 147.664C10.6478 122.191 18.8386 91.3718 54.6485 70.5615C101.324 43.4365 177.524 43.4362 224.506 70.5608C271.489 97.6866 271.737 141.825 225.062 168.95C196.017 185.828 155.541 192.208 117.786 188.079L117.186 189.496C124.747 190.331 132.455 190.752 140.254 190.75C156.171 190.751 171.679 189.002 186.347 185.553C201.532 181.98 215.142 176.734 226.805 169.956C238.463 163.181 247.48 155.278 253.597 146.472C259.503 137.964 262.47 128.977 262.418 119.756C262.368 110.536 259.298 101.547 253.294 93.0411C247.08 84.2362 237.976 76.3318 226.237 69.5544Z" fill="#E7E7E7"/>
<path d="M234.108 64.9785C221.302 57.5851 206.384 51.858 189.77 47.9629C180.505 45.7882 170.935 44.2347 161.154 43.3096L161.331 43.7753C187.787 46.3122 213.194 53.4764 233.614 65.2658C285.657 95.3128 285.932 144.204 234.232 174.249C182.527 204.296 98.1214 204.296 46.0787 174.249C-5.95974 144.205 -6.23489 95.3141 45.4696 65.2667C51.6716 61.6625 58.3497 58.4903 65.383 55.7529L65.2174 55.3093C57.9858 58.1178 51.2209 61.3482 44.9722 64.9796C32.2452 72.3756 22.4064 80.9982 15.7356 90.609C9.28864 99.89 6.05174 109.699 6.10614 119.76C6.16273 129.819 9.51445 139.628 16.0637 148.91C22.845 158.52 32.7786 167.144 45.5843 174.537C58.3945 181.933 73.3124 187.657 89.9267 191.555C105.973 195.318 122.915 197.227 140.284 197.228C157.654 197.226 174.575 195.318 190.578 191.555C207.146 187.658 222.002 181.932 234.729 174.536C247.451 167.142 257.288 158.519 263.961 148.909C270.406 139.627 273.647 129.818 273.591 119.758C273.532 109.698 270.185 99.8889 263.633 90.6079C256.852 80.9955 246.918 72.3745 234.108 64.9785Z" fill="#E7E7E7"/>
</g>
</g>
<g opacity="0.06">
<path d="M186.484 93.2067C179.756 89.3217 171.917 86.3113 163.18 84.2623C154.745 82.2862 145.843 81.2837 136.716 81.2822C127.588 81.281 118.697 82.2862 110.285 84.2652C101.576 86.3144 93.7705 89.3221 87.0856 93.207C80.3981 97.0934 75.2288 101.626 71.7195 106.677C68.3304 111.556 66.6264 116.708 66.6561 121.996C66.6882 127.283 68.4481 132.436 71.8896 137.314C74.6434 141.215 78.389 144.806 83.0482 148.028L73.7114 153.454L72.867 152.967C71.6361 152.256 69.6248 152.256 68.402 152.967L0.913774 192.187C-0.311495 192.899 -0.302457 194.062 0.928253 194.773L11.7478 201.019C12.9787 201.73 14.9877 201.731 16.2128 201.019L83.7011 161.799C84.9238 161.089 84.9173 159.924 83.6866 159.213L82.8421 158.726L92.1789 153.3C97.7574 155.988 103.965 158.144 110.71 159.727C119.144 161.706 128.049 162.71 137.174 162.71C146.301 162.708 155.192 161.706 163.607 159.728C172.316 157.679 180.124 154.67 186.811 150.783C193.496 146.899 198.663 142.368 202.172 137.316C205.559 132.436 207.263 127.281 207.233 121.996C207.204 116.71 205.441 111.555 202 106.675C198.436 101.622 193.216 97.093 186.484 93.2067Z" fill="black"/>
</g>
<path d="M97.5198 95.644C86.9467 101.789 81.6532 109.846 81.6289 117.917L81.668 104.081C81.6925 96.0111 86.9859 87.9533 97.559 81.8088C107.383 76.0999 120.075 73.0262 133.002 72.5879C132.988 77.1999 132.975 81.8113 132.962 86.4231C120.036 86.8615 107.343 89.9352 97.5198 95.644Z" fill="#B7B7B7"/>
<path d="M132.961 86.4231C132.974 81.8111 132.987 77.1997 133 72.5879C148.078 72.0766 163.474 75.1509 175.01 81.8109C185.791 88.0354 191.175 96.2251 191.15 104.402L191.111 118.237C191.136 110.06 185.752 101.871 174.971 95.6462C163.435 88.9861 148.039 85.9119 132.961 86.4231Z" fill="#B7B7B7"/>
<path d="M200.271 104.43L200.231 118.265C200.218 123.002 198.67 127.622 195.633 131.999L195.672 118.163C198.709 113.786 200.257 109.167 200.271 104.43Z" fill="#C7C7C7"/>
<path opacity="0.302" d="M191.148 104.399L191.109 118.235C191.086 126.305 185.794 134.364 175.221 140.508C153.935 152.878 119.19 152.879 97.7685 140.511C86.9868 134.286 81.6019 126.097 81.6251 117.921L81.6643 104.086C81.641 112.262 87.026 120.451 97.8077 126.676C119.229 139.043 153.974 139.043 175.26 126.673C185.833 120.529 191.125 112.47 191.148 104.399Z" fill="#39C3F2"/>
<g opacity="0.5">
<path d="M175.012 87.932C196.433 100.3 196.546 120.425 175.264 132.793C153.978 145.163 119.233 145.163 97.8115 132.796C76.386 120.426 76.2726 100.3 97.559 87.9299C118.841 75.5622 153.586 75.562 175.012 87.932Z" fill="#003962"/>
</g>
<path d="M72.5 117.904L72.5392 104.068C72.539 104.127 72.5392 104.186 72.5394 104.245C72.5686 109.049 74.1676 113.731 77.2966 118.164C79.799 121.709 83.1977 124.972 87.4332 127.9C88.6819 128.764 90.0036 129.599 91.3965 130.403C92.7891 131.207 94.2347 131.97 95.7295 132.69C100.798 135.132 106.44 137.09 112.567 138.527C120.231 140.325 128.321 141.237 136.612 141.237C144.906 141.236 152.984 140.325 160.629 138.528C168.545 136.667 175.636 133.932 181.713 130.401C187.787 126.871 192.484 122.756 195.67 118.165L195.631 132C192.445 136.591 187.748 140.706 181.674 144.236C175.597 147.767 168.506 150.503 160.59 152.363C152.945 154.16 144.866 155.071 136.573 155.073C128.282 155.073 120.191 154.161 112.528 152.363C106.401 150.925 100.758 148.968 95.6904 146.526C94.1956 145.805 92.75 145.042 91.3573 144.238C89.9645 143.434 88.6429 142.599 87.394 141.736C83.1585 138.807 79.7599 135.544 77.2576 131.999C74.1285 127.566 72.5294 122.884 72.5004 118.08C72.5 118.021 72.5 117.963 72.5 117.904Z" fill="#C7C7C7"/>
<path d="M80.8064 141.495L80.7758 152.274L74.3125 148.542L74.343 137.764L80.8064 141.495Z" fill="#4D4C4D"/>
<path d="M93.8713 133.923L93.8407 144.702L80.7695 152.273L80.8002 141.494L93.8713 133.923Z" fill="#3A3A3B"/>
<path d="M93.8784 133.924L80.8072 141.496L74.3438 137.764L87.4147 130.192C88.3877 130.865 89.4173 131.516 90.5024 132.142C91.5873 132.768 92.7137 133.363 93.8784 133.924Z" fill="#4D4C4D"/>
<path d="M195.667 118.165C192.48 122.756 187.783 126.871 181.709 130.401C175.633 133.932 168.541 136.668 160.626 138.528C152.98 140.325 144.902 141.236 136.608 141.237C128.317 141.237 120.227 140.325 112.563 138.527C106.436 137.09 100.794 135.133 95.7256 132.69C94.2308 131.97 92.7852 131.207 91.3926 130.403C89.9997 129.599 88.6782 128.764 87.4293 127.9C83.1938 124.972 79.7951 121.709 77.2927 118.164C74.1637 113.731 72.5645 109.049 72.5355 104.245C72.5106 99.4414 74.0569 94.7592 77.136 90.3259C80.3247 85.7362 85.0216 81.6182 91.0979 78.0869C97.1718 74.5571 104.264 71.8244 112.177 69.9622C119.82 68.1642 127.901 67.252 136.192 67.252C144.485 67.253 152.574 68.164 160.239 69.9607C168.176 71.8213 175.298 74.5568 181.414 78.0878C187.528 81.6177 192.271 85.7331 195.509 90.324C198.636 94.7585 200.238 99.4419 200.265 104.245C200.292 109.047 198.744 113.73 195.667 118.165ZM97.8026 126.678C119.224 139.045 153.969 139.045 175.255 126.675C196.537 114.307 196.424 94.1816 175.003 81.8141C153.577 69.4439 118.832 69.4441 97.5501 81.8119C76.2635 94.1821 76.3769 114.308 97.8026 126.678Z" fill="#EFEFEF"/>
<path d="M82.9037 142.548L82.8645 156.383C82.8632 156.806 82.587 157.229 82.0352 157.55L82.0743 143.715C82.6262 143.394 82.9024 142.971 82.9037 142.548Z" fill="#00AAAA"/>
<path d="M5.97657 186.329L6.01575 172.494C6.01448 172.923 6.29614 173.352 6.85999 173.677L6.8208 187.513C6.25695 187.187 5.9753 186.758 5.97657 186.329Z" fill="#08979C"/>
<path d="M82.0705 143.719L82.0312 157.554L20.7109 193.19L20.7501 179.354L82.0705 143.719Z" fill="#00AAAA"/>
<path d="M16.692 179.351L16.6529 193.187L6.82422 187.512L6.8634 173.677L16.692 179.351Z" fill="#08979C"/>
<path d="M20.7484 179.351L20.7092 193.186C19.596 193.833 17.7706 193.831 16.6523 193.186L16.6915 179.351C17.8098 179.996 19.6352 179.997 20.7484 179.351Z" fill="#08979C"/>
<path d="M82.0524 141.366C83.1708 142.012 83.1766 143.071 82.0656 143.716L20.7452 179.352C19.632 179.999 17.8066 179.997 16.6883 179.352L6.85987 173.677C5.73943 173.03 5.73344 171.974 6.84663 171.327L68.1671 135.692C69.2781 135.046 71.1034 135.045 72.2239 135.692L72.991 136.135L81.2874 140.925L82.0524 141.366Z" fill="#08979C"/>
<g opacity="0.1">
<path d="M176.468 97.5773L158.013 87.2124C156.828 86.5282 154.895 86.5282 153.718 87.2124L97.8125 119.658C96.6351 120.342 96.6415 121.462 97.8265 122.146L116.281 132.511C117.466 133.195 119.399 133.195 120.576 132.511L176.482 100.065C177.659 99.3813 177.653 98.2616 176.468 97.5773Z" fill="black"/>
</g>
<path d="M132.45 121.747L134.91 115.796C134.91 115.796 136.631 112.071 131.301 112.622C125.972 113.173 123.969 115.545 123.969 115.545L132.45 121.747Z" fill="#6E5F27"/>
<path d="M128.436 117.828C128.436 117.473 128.411 117.141 128.366 116.83L131.297 117.143C129.982 115.625 128.233 115.202 126.567 115.022C126.453 115.01 126.337 115.004 126.218 115.007C126.175 115.006 126.132 115.005 126.088 115.005L126.09 115.014C125.617 115.051 125.105 115.218 124.57 115.526C122.169 116.913 120.223 120.631 120.223 123.832C120.223 125.041 120.501 126.003 120.976 126.658V126.658C121.45 127.599 123.964 128.865 126.042 128.865L126.522 127.741L124.665 125.749C126.794 124.145 128.436 120.769 128.436 117.828Z" fill="#333333"/>
<path d="M131.308 124.068C132.751 120.676 132.366 117.265 130.447 116.448C128.528 115.632 125.803 117.719 124.359 121.111C122.916 124.503 123.302 127.914 125.22 128.73C127.139 129.547 129.864 127.459 131.308 124.068Z" fill="#4D4E4E"/>
<path d="M131.476 124.068C132.857 120.824 132.488 117.56 130.652 116.779C128.816 115.998 126.209 117.995 124.828 121.239C123.447 124.484 123.816 127.748 125.652 128.529C127.488 129.31 130.095 127.313 131.476 124.068Z" fill="#333333"/>
<path d="M130.868 121.078C130.868 123.1 129.639 125.45 128.122 126.326C126.605 127.202 125.375 126.271 125.375 124.249C125.375 122.884 125.936 121.368 126.768 120.258C127.167 119.724 127.629 119.285 128.122 119C128.614 118.716 129.075 118.623 129.475 118.694C130.307 118.843 130.868 119.711 130.868 121.078Z" fill="#008D8D"/>
<path d="M130.638 121.212C130.638 123.064 129.513 125.216 128.122 126.019C127.315 126.485 126.597 126.393 126.138 125.871C125.804 125.493 125.605 124.894 125.605 124.116C125.605 122.865 126.121 121.478 126.881 120.459C127.247 119.971 127.671 119.57 128.122 119.309C128.569 119.05 128.989 118.965 129.353 119.026C129.357 119.026 129.359 119.027 129.362 119.027C130.125 119.165 130.638 119.959 130.638 121.212Z" fill="#08979C"/>
<mask id="mask0_47812_9602" style="mask-type:luminance" maskUnits="userSpaceOnUse" x="125" y="119" width="5" height="7">
<path d="M129.884 120.781C129.884 122.633 128.759 124.787 127.369 125.588C126.922 125.847 126.502 125.934 126.138 125.869C125.804 125.491 125.605 124.892 125.605 124.114C125.605 122.863 126.121 121.476 126.881 120.457C127.247 119.969 127.671 119.568 128.122 119.307C128.569 119.048 128.989 118.963 129.353 119.024C129.686 119.4 129.886 120.001 129.884 120.781Z" fill="white"/>
</mask>
<g mask="url(#mask0_47812_9602)">
<path d="M129.888 120.782C129.888 122.634 128.762 124.787 127.372 125.589C125.982 126.392 124.855 125.539 124.855 123.687C124.855 122.436 125.369 121.048 126.131 120.031C126.497 119.542 126.92 119.139 127.372 118.879C127.822 118.619 128.245 118.533 128.611 118.598C129.374 118.735 129.888 119.53 129.888 120.782Z" fill="#676767"/>
<path d="M128.092 122.217C128.147 122.346 128.236 122.439 128.361 122.473L129.509 122.787C129.408 123.053 129.288 123.319 129.151 123.581C129.014 123.842 128.867 124.085 128.712 124.31L127.978 123.203C127.899 123.083 127.791 123.026 127.67 123.024C127.624 123.216 127.611 123.41 127.642 123.583L127.935 125.187C127.754 125.343 127.566 125.478 127.372 125.59C127.179 125.702 126.99 125.783 126.809 125.838L127.102 123.896C127.134 123.685 127.12 123.507 127.074 123.369C126.953 123.51 126.845 123.691 126.766 123.903L126.032 125.857C125.877 125.812 125.73 125.738 125.593 125.635C125.456 125.531 125.337 125.404 125.235 125.255L126.384 123.615C126.508 123.437 126.597 123.24 126.652 123.048C126.528 123.058 126.388 123.121 126.244 123.246L124.914 124.406C124.876 124.186 124.855 123.947 124.855 123.689C124.855 123.431 124.876 123.167 124.914 122.903L126.244 122.526C126.388 122.486 126.527 122.388 126.651 122.254C126.597 122.123 126.508 122.031 126.384 121.997L125.235 121.683C125.337 121.417 125.456 121.151 125.593 120.89C125.73 120.628 125.877 120.385 126.032 120.159L126.766 121.268C126.845 121.388 126.953 121.444 127.073 121.448C127.12 121.256 127.134 121.062 127.102 120.887L126.809 119.283C126.99 119.128 127.179 118.992 127.372 118.88C127.566 118.769 127.754 118.687 127.935 118.633L127.642 120.575C127.611 120.786 127.624 120.965 127.671 121.102C127.791 120.961 127.899 120.779 127.978 120.568L128.712 118.612C128.867 118.658 129.014 118.732 129.151 118.835C129.288 118.939 129.408 119.067 129.51 119.215L128.361 120.856C128.236 121.033 128.147 121.229 128.093 121.421C128.217 121.412 128.356 121.35 128.5 121.224L129.831 120.064C129.869 120.285 129.889 120.525 129.889 120.783C129.889 121.041 129.869 121.303 129.831 121.568L128.5 121.944C128.356 121.985 128.216 122.083 128.092 122.217Z" fill="#008D8D"/>
<path d="M127.663 122.063C127.663 122.279 127.531 122.531 127.369 122.625C127.206 122.719 127.074 122.619 127.074 122.402C127.074 122.186 127.206 121.934 127.369 121.84C127.531 121.746 127.663 121.846 127.663 122.063Z" fill="#08979C"/>
<path d="M126.86 122.986C126.904 122.904 126.973 122.864 127.016 122.896C127.059 122.929 127.059 123.021 127.016 123.104C126.973 123.186 126.904 123.226 126.86 123.194C126.817 123.161 126.817 123.068 126.86 122.986Z" fill="#08979C"/>
<path d="M127.708 121.369C127.751 121.287 127.821 121.246 127.864 121.279C127.907 121.311 127.907 121.404 127.864 121.487C127.821 121.569 127.751 121.609 127.708 121.577C127.665 121.544 127.665 121.451 127.708 121.369Z" fill="#08979C"/>
<path d="M126.766 122.434C126.827 122.399 126.877 122.436 126.877 122.517C126.877 122.599 126.827 122.693 126.766 122.728C126.706 122.763 126.656 122.726 126.656 122.645C126.656 122.563 126.706 122.469 126.766 122.434Z" fill="#08979C"/>
<path d="M127.97 121.746C128.031 121.711 128.08 121.748 128.08 121.829C128.08 121.91 128.031 122.004 127.97 122.039C127.909 122.075 127.859 122.037 127.859 121.956C127.859 121.875 127.909 121.781 127.97 121.746Z" fill="#08979C"/>
<path d="M127.016 121.769C127.059 121.802 127.059 121.895 127.016 121.977C126.973 122.059 126.904 122.099 126.86 122.067C126.817 122.034 126.817 121.941 126.86 121.859C126.904 121.777 126.973 121.737 127.016 121.769Z" fill="#08979C"/>
<path d="M127.864 122.408C127.907 122.44 127.907 122.533 127.864 122.616C127.821 122.698 127.751 122.738 127.708 122.705C127.665 122.673 127.665 122.58 127.708 122.498C127.751 122.415 127.821 122.375 127.864 122.408Z" fill="#08979C"/>
<path d="M127.482 121.374C127.482 121.455 127.433 121.549 127.372 121.584C127.311 121.619 127.262 121.582 127.262 121.501C127.262 121.42 127.311 121.326 127.372 121.291C127.433 121.255 127.482 121.293 127.482 121.374Z" fill="#08979C"/>
<path d="M127.482 122.97C127.482 123.051 127.433 123.145 127.372 123.18C127.311 123.215 127.262 123.178 127.262 123.097C127.262 123.016 127.311 122.921 127.372 122.886C127.433 122.851 127.482 122.888 127.482 122.97Z" fill="#08979C"/>
</g>
<path d="M168.219 99.486L170.68 93.5357C170.68 93.5357 172.401 89.8106 167.071 90.3612C161.741 90.9118 159.738 93.2842 159.738 93.2842L168.219 99.486Z" fill="#6E5F27"/>
<path d="M164.265 96.6894C164.265 96.3347 164.239 96.0026 164.194 95.692L167.125 96.0041C165.81 94.4863 164.061 94.0632 162.395 93.8835C162.282 93.8711 162.166 93.8653 162.046 93.8688C162.003 93.868 161.96 93.8662 161.916 93.8662L161.919 93.8753C161.445 93.9128 160.933 94.079 160.398 94.3878C157.997 95.774 156.051 99.4926 156.051 102.694C156.051 103.903 156.329 104.864 156.804 105.519L156.804 105.519C157.278 106.461 159.793 107.726 161.87 107.726L162.35 106.602L160.493 104.611C162.621 103.006 164.265 99.6302 164.265 96.6894Z" fill="#333333"/>
<path d="M167.136 102.926C168.579 99.535 168.194 96.1237 166.275 95.3072C164.356 94.4907 161.631 96.5781 160.187 99.9696C158.744 103.361 159.13 106.772 161.048 107.589C162.967 108.405 165.692 106.318 167.136 102.926Z" fill="#4D4E4E"/>
<path d="M167.308 102.926C168.689 99.681 168.32 96.4175 166.484 95.6363C164.649 94.8551 162.041 96.8521 160.66 100.097C159.279 103.341 159.648 106.605 161.484 107.386C163.32 108.167 165.927 106.17 167.308 102.926Z" fill="#333333"/>
<path d="M166.693 99.9391C166.693 101.961 165.463 104.311 163.946 105.187C162.429 106.063 161.199 105.132 161.199 103.111C161.199 101.745 161.76 100.229 162.592 99.119C162.991 98.5858 163.453 98.1461 163.946 97.8616C164.438 97.5776 164.9 97.484 165.299 97.5549C166.131 97.7043 166.693 98.5722 166.693 99.9391Z" fill="#008D8D"/>
<path d="M166.462 100.072C166.462 101.924 165.337 104.076 163.946 104.879C163.14 105.345 162.421 105.254 161.962 104.732C161.628 104.354 161.43 103.754 161.43 102.976C161.43 101.726 161.945 100.338 162.706 99.3196C163.072 98.8315 163.495 98.43 163.946 98.169C164.393 97.9099 164.814 97.825 165.178 97.8861C165.181 97.8861 165.183 97.8878 165.186 97.8878C165.949 98.0249 166.462 98.8196 166.462 100.072Z" fill="#08979C"/>
<mask id="mask1_47812_9602" style="mask-type:luminance" maskUnits="userSpaceOnUse" x="161" y="97" width="5" height="8">
<path d="M165.716 99.6412C165.716 101.493 164.591 103.647 163.201 104.448C162.754 104.707 162.334 104.794 161.97 104.73C161.636 104.352 161.438 103.752 161.438 102.974C161.438 101.724 161.953 100.336 162.713 99.3176C163.079 98.8296 163.503 98.4281 163.954 98.1671C164.401 97.9079 164.821 97.8231 165.185 97.8842C165.518 98.2603 165.718 98.8617 165.716 99.6412Z" fill="white"/>
</mask>
<g mask="url(#mask1_47812_9602)">
<path d="M165.72 99.6412C165.72 101.493 164.594 103.646 163.204 104.449C161.814 105.251 160.688 104.399 160.688 102.547C160.688 101.295 161.201 99.9069 161.963 98.89C162.329 98.4015 162.752 97.9988 163.204 97.7382C163.654 97.478 164.077 97.3924 164.443 97.4573C165.206 97.5942 165.72 98.3891 165.72 99.6412Z" fill="#676767"/>
<path d="M163.924 101.076C163.979 101.205 164.068 101.299 164.193 101.333L165.341 101.647C165.239 101.913 165.12 102.179 164.983 102.44C164.846 102.701 164.699 102.945 164.544 103.169L163.81 102.062C163.731 101.942 163.623 101.885 163.503 101.883C163.456 102.075 163.443 102.269 163.475 102.443L163.768 104.047C163.586 104.202 163.398 104.338 163.204 104.45C163.011 104.561 162.822 104.643 162.641 104.697L162.934 102.755C162.966 102.545 162.952 102.366 162.906 102.228C162.785 102.369 162.677 102.551 162.598 102.762L161.864 104.716C161.709 104.671 161.562 104.598 161.425 104.494C161.289 104.391 161.169 104.263 161.067 104.114L162.216 102.474C162.34 102.296 162.429 102.1 162.484 101.908C162.36 101.917 162.22 101.98 162.077 102.106L160.746 103.266C160.708 103.045 160.688 102.806 160.688 102.548C160.688 102.29 160.708 102.026 160.746 101.762L162.077 101.385C162.22 101.345 162.359 101.247 162.483 101.113C162.429 100.983 162.34 100.89 162.216 100.856L161.067 100.542C161.169 100.276 161.288 100.01 161.425 99.749C161.562 99.4877 161.709 99.2443 161.864 99.0189L162.598 100.127C162.677 100.247 162.785 100.304 162.905 100.307C162.952 100.115 162.966 99.921 162.934 99.7467L162.641 98.1427C162.823 97.9869 163.011 97.8515 163.204 97.7397C163.398 97.628 163.586 97.5464 163.768 97.4922L163.475 99.4344C163.443 99.6455 163.456 99.8245 163.503 99.9618C163.623 99.8201 163.731 99.6386 163.811 99.4269L164.544 97.4717C164.7 97.5177 164.846 97.5914 164.983 97.6947C165.12 97.7981 165.24 97.926 165.342 98.0745L164.193 99.7149C164.068 99.8925 163.979 100.088 163.926 100.281C164.049 100.272 164.188 100.209 164.332 100.083L165.663 98.9235C165.701 99.144 165.721 99.3841 165.721 99.6422C165.721 99.9003 165.701 100.163 165.663 100.427L164.332 100.804C164.188 100.844 164.048 100.943 163.924 101.076Z" fill="#008D8D"/>
<path d="M163.495 100.922C163.495 101.139 163.363 101.391 163.201 101.484C163.038 101.578 162.906 101.479 162.906 101.262C162.906 101.045 163.038 100.793 163.201 100.699C163.363 100.606 163.495 100.705 163.495 100.922Z" fill="#08979C"/>
<path d="M162.708 101.843C162.751 101.761 162.821 101.721 162.864 101.753C162.907 101.786 162.907 101.879 162.864 101.961C162.821 102.043 162.751 102.084 162.708 102.051C162.665 102.019 162.665 101.926 162.708 101.843Z" fill="#08979C"/>
<path d="M163.556 100.226C163.599 100.144 163.668 100.104 163.712 100.136C163.755 100.169 163.755 100.262 163.712 100.344C163.668 100.426 163.599 100.466 163.556 100.434C163.513 100.402 163.513 100.308 163.556 100.226Z" fill="#08979C"/>
<path d="M162.61 101.289C162.671 101.253 162.72 101.291 162.72 101.372C162.72 101.453 162.671 101.547 162.61 101.582C162.549 101.618 162.5 101.58 162.5 101.499C162.5 101.418 162.549 101.324 162.61 101.289Z" fill="#08979C"/>
<path d="M163.809 100.6C163.87 100.565 163.92 100.602 163.92 100.683C163.92 100.765 163.87 100.859 163.809 100.894C163.749 100.929 163.699 100.892 163.699 100.811C163.699 100.73 163.749 100.635 163.809 100.6Z" fill="#08979C"/>
<path d="M162.864 100.624C162.907 100.656 162.907 100.749 162.864 100.831C162.821 100.914 162.751 100.954 162.708 100.921C162.665 100.889 162.665 100.796 162.708 100.714C162.751 100.631 162.821 100.591 162.864 100.624Z" fill="#08979C"/>
<path d="M163.712 101.262C163.755 101.295 163.755 101.388 163.712 101.47C163.669 101.552 163.599 101.592 163.556 101.56C163.513 101.527 163.513 101.435 163.556 101.352C163.599 101.27 163.669 101.23 163.712 101.262Z" fill="#08979C"/>
<path d="M163.318 100.233C163.318 100.314 163.269 100.409 163.208 100.444C163.147 100.479 163.098 100.442 163.098 100.36C163.098 100.279 163.147 100.185 163.208 100.15C163.269 100.115 163.318 100.152 163.318 100.233Z" fill="#08979C"/>
<path d="M163.318 101.828C163.318 101.909 163.269 102.003 163.208 102.039C163.147 102.074 163.098 102.036 163.098 101.955C163.098 101.874 163.147 101.78 163.208 101.745C163.269 101.709 163.318 101.747 163.318 101.828Z" fill="#08979C"/>
</g>
<path d="M174.955 88.6118C174.943 89.2404 174.923 89.9759 174.885 90.6757C174.829 91.7296 174.736 92.7041 174.579 93.1072C174.165 94.1747 172.499 96.242 172.208 96.6436C171.917 97.0451 168.226 99.4869 168.226 99.4869C168.226 99.4869 169.075 96.0217 166.626 94.4306C165.713 93.973 162.597 94.0612 159.632 99.0785C157.883 102.135 158.218 106.302 158.218 106.302C155.226 107.614 137.273 118.706 135.834 119.536C134.398 120.366 132.945 121.463 132.454 121.747C132.454 118.604 132.273 116.255 130.459 115.529C128.645 114.8 125.847 116.579 123.905 119.636C122.377 122.039 122.326 125.555 122.375 126.946C122.389 127.326 122.409 127.546 122.409 127.546C120.525 128.634 119.393 129.064 118.722 129.213C118.71 129.217 118.7 129.218 118.686 129.22C118.568 129.245 118.464 129.26 118.375 129.269C118.369 129.271 118.364 129.271 118.359 129.271C117.876 129.316 117.773 129.164 117.773 129.164L117.156 128.915L116.87 128.801C116.87 128.801 116.687 126.998 116.773 125.334C116.79 124.973 116.822 124.619 116.87 124.292C117.012 123.331 117.334 122.232 117.693 121.269C118.022 120.39 118.38 119.626 118.657 119.194C122.118 114.036 132.454 107.005 132.454 107.005C132.454 107.005 132.454 107.005 132.454 107.004C137.429 100.17 143.802 94.4172 143.802 94.4172C145.744 92.882 152.506 88.3561 157.053 86.4566C160.558 84.9926 165.55 84.3216 167.653 84.0911C168.277 84.0233 168.646 83.9928 168.646 83.9928C168.646 83.9928 172.765 81.9612 173.284 81.7662C173.787 81.5765 174.411 81.3799 174.448 81.8731C174.45 81.8901 174.45 81.9053 174.45 81.9222C174.409 82.1153 174.384 82.3306 174.372 82.5593C174.367 82.6491 174.365 82.7423 174.363 82.8372V83.0423C174.367 83.1999 174.373 83.3607 174.383 83.5234C174.449 84.5078 174.648 85.5585 174.795 86.2397C174.829 86.3938 174.86 86.5295 174.885 86.6396C174.936 86.853 174.968 86.9767 174.968 86.9767C174.968 86.9767 174.972 87.6766 174.955 88.6118Z" fill="#08979C"/>
<path opacity="0.4" d="M174.886 90.6747C174.83 91.7302 174.736 92.704 174.579 93.1077C174.165 94.1762 172.501 96.2425 172.209 96.6438C171.917 97.0454 168.226 99.4872 168.226 99.4872C168.226 99.4872 169.075 96.0234 166.627 94.4312C165.713 93.9749 162.596 94.0624 159.631 99.0786C157.882 102.135 158.22 106.301 158.22 106.301C155.226 107.615 137.273 118.706 135.835 119.536C134.397 120.366 132.946 121.463 132.454 121.746C132.454 118.604 132.274 116.255 130.458 115.528C128.646 114.8 125.848 116.58 123.905 119.637C122.377 122.039 122.327 125.554 122.376 126.947C122.389 127.325 122.408 127.547 122.408 127.547C118.289 129.925 117.774 129.164 117.774 129.164L117.156 128.916L116.871 128.8C116.871 128.8 116.687 126.999 116.773 125.333C116.791 124.975 116.823 124.62 116.871 124.292C117.014 123.332 117.335 122.23 117.695 121.269C120.265 118.699 125.121 113.998 127.604 112.562C131.081 110.553 134.614 111.29 139.169 109.517C143.724 107.744 163.859 91.0064 167.366 87.6355C170.065 85.0404 173.112 83.2484 174.372 82.5596C174.363 82.7134 174.362 82.8766 174.365 83.0413C174.366 83.1989 174.373 83.361 174.385 83.5224C174.45 84.5085 174.648 85.5602 174.795 86.2386C174.828 86.3933 174.859 86.5301 174.886 86.64C174.935 86.8538 174.968 86.9761 174.968 86.9761C174.968 86.9761 174.978 88.9366 174.886 90.6747Z" fill="#E5E5E4"/>
<path d="M174.878 90.6768C174.822 91.7314 174.728 92.706 174.572 93.1092C174.158 94.1774 172.493 96.2443 172.202 96.6457C171.91 97.0472 168.218 99.4894 168.218 99.4894C168.218 99.4894 169.067 96.0242 166.619 94.4324C165.706 93.9752 162.589 94.0626 159.624 99.0803C157.875 102.137 158.211 106.303 158.211 106.303C155.219 107.616 137.265 118.707 135.827 119.537C134.39 120.367 132.939 121.464 132.447 121.748C132.447 118.605 132.265 116.257 130.451 115.53C128.638 114.801 125.84 116.581 123.897 119.637C122.369 122.041 122.319 125.556 122.367 126.947C122.381 127.326 122.401 127.548 122.401 127.548C118.282 129.926 117.766 129.164 117.766 129.164L117.148 128.916C118.296 129.033 121.36 126.758 121.36 126.758C121.234 123.574 122.6 119.815 123.78 118.15C124.961 116.485 128.793 112.976 131.086 114.483C133.379 115.991 133.243 119.897 133.243 119.897L157.459 105.511C157.459 105.511 157.459 103.784 157.823 102.071C158.483 99.0987 160.232 96.5866 161.644 95.2017C163.055 93.8168 164.973 92.813 166.994 93.3562C169.015 93.8993 168.963 97.972 168.963 97.972C168.963 97.972 171.113 96.6774 172.057 94.6297C172.989 92.6097 174.83 90.725 174.878 90.6768Z" fill="#008D8D"/>
<path d="M174.442 81.8716C174.405 81.3785 173.781 81.5751 173.278 81.7648C172.76 81.9595 168.64 83.9913 168.64 83.9913C169.01 82.9407 161.032 77.7692 154.968 74.7497C152.196 73.3705 149.823 72.4385 148.832 72.5571C148.832 72.5571 152.951 70.5255 153.468 70.3289C158.082 68.1141 174.281 78.5978 174.442 81.8716Z" fill="#08979C"/>
<path d="M168.638 83.9912C168.638 83.9912 168.269 84.0217 167.645 84.0895H167.643C165.539 84.32 160.548 84.9911 157.044 86.455C157.902 85.9603 156.628 84.3505 154.343 82.4782C149.668 78.6469 140.764 73.7212 137.234 75.0192C140.74 73.5551 145.732 72.8842 147.835 72.6553C148.458 72.5875 148.829 72.557 148.829 72.557C149.821 72.4384 152.193 73.3704 154.965 74.7497C161.03 77.7691 169.007 82.9406 168.638 83.9912Z" fill="#08979C"/>
<path d="M157.046 86.4566C152.5 88.3562 145.737 92.882 143.795 94.4173C143.014 94.6561 140.938 94.0395 138.409 92.9752C132.048 90.3031 122.808 84.8095 123.985 82.983C125.929 81.4462 132.69 76.9202 137.236 75.0208C140.766 73.7228 149.67 78.6487 154.345 82.4798C156.629 84.3521 157.904 85.9619 157.046 86.4566Z" fill="#08979C"/>
<path d="M143.382 93.6218C143.006 93.6218 141.802 93.4827 138.741 92.1949C135.75 90.9386 132.183 89.0763 129.43 87.3347C125.666 84.9535 124.917 83.7928 124.77 83.4508C126.85 81.8686 133.149 77.653 137.548 75.8106C137.834 75.7081 138.191 75.6562 138.609 75.6562C142.243 75.6562 149.404 79.5234 153.812 83.1355C155.529 84.5438 156.197 85.4214 156.399 85.8135C151.809 87.8061 145.44 92.0859 143.444 93.6203C143.426 93.6213 143.405 93.6218 143.382 93.6218Z" fill="#08979C"/>
<path d="M143.79 94.4176C143.79 94.4176 143.32 94.8413 142.537 95.5954C140.434 97.6186 136.066 102.024 132.442 107.004C132.442 107.006 132.442 107.006 132.442 107.006C131.276 107.382 127.194 105.896 123.02 103.844C117.302 101.033 111.413 97.1611 112.63 95.5716L112.632 95.57C112.632 95.57 112.632 95.57 112.633 95.57C116.322 90.4984 120.782 86.025 122.839 84.0543V84.0527C123.554 83.3664 123.98 82.9834 123.98 82.9834C122.802 84.8101 132.042 90.3034 138.403 92.9756C140.933 94.0396 143.008 94.6565 143.79 94.4176Z" fill="#08979C"/>
<path d="M132.453 107.004C132.453 107.004 122.117 114.034 118.657 119.192C115.809 120.331 114.707 120.331 112.674 120.331C111.191 120.331 105.828 117.035 102.549 115.205C101.331 114.525 100.399 113.986 100.054 113.787C98.7793 113.053 97.8828 109.832 97.8828 109.832C98.2116 108.952 98.5691 108.19 98.8485 107.756C102.28 102.639 112.482 95.6778 112.642 95.5693C111.425 97.1588 117.313 101.031 123.032 103.842C127.206 105.894 131.288 107.38 132.453 107.004Z" fill="#08979C"/>
<path d="M112.667 119.485C111.708 119.485 107.601 117.125 105.146 115.715C104.361 115.264 103.619 114.837 102.956 114.467C101.744 113.791 100.82 113.257 100.472 113.056C99.8532 112.7 99.1295 111.037 98.7695 109.869C99.0407 109.177 99.333 108.56 99.5539 108.217C102.188 104.289 109.13 99.1066 111.923 97.1074C113.432 99.9027 120.416 103.505 122.652 104.604C125.072 105.794 127.996 107.045 130.127 107.607C127.016 109.861 120.825 114.602 118.098 118.501C115.578 119.485 114.586 119.485 112.667 119.485Z" fill="#08979C"/>
<path d="M118.352 129.271C116.558 129.51 113.22 129.349 110.658 128.268C106.288 126.423 101.481 123.564 98.5476 121.124C97.7766 120.483 97.409 119.635 97.2311 118.876C97.2311 118.876 97.2311 118.874 97.2292 118.874C97.0836 118.257 97.0631 117.7 97.0548 117.366C97.0548 117.366 96.9853 116.695 96.9514 115.793C96.9311 115.217 96.9226 114.548 96.9565 113.899C96.9734 113.54 97.0056 113.186 97.0548 112.859C97.1598 112.143 97.3649 111.351 97.6106 110.596C97.6953 110.335 97.7851 110.08 97.8767 109.834C97.8767 109.834 98.7732 113.055 100.047 113.789C100.393 113.989 101.325 114.528 102.543 115.207C105.822 117.037 111.185 120.333 112.668 120.333C114.701 120.333 115.803 120.333 118.651 119.194C118.495 119.438 118.312 119.787 118.124 120.204C117.978 120.524 117.831 120.887 117.687 121.27C117.327 122.232 117.005 123.332 116.863 124.293C116.816 124.62 116.784 124.974 116.766 125.335C116.68 126.999 116.863 128.802 116.863 128.802L117.15 128.915L117.766 129.164C117.766 129.164 117.87 129.317 118.352 129.271Z" fill="#08979C"/>
<path d="M142.546 95.5878L142.545 95.5898C142.431 95.6906 137.364 100.245 132.446 107.003C132.445 107.004 132.445 107.004 132.445 107.004L132.788 107.063C132.788 107.063 133.365 106.94 133.684 106.94C133.684 106.94 134.085 106.777 134.673 106.526C134.673 106.526 141.966 96.7206 143.307 95.5029C142.708 95.7645 142.546 95.5878 142.546 95.5878Z" fill="#2C4157"/>
<path d="M162.084 87.3856C161.26 88.1862 159.693 90.2183 158.376 91.4037C157.659 92.0475 153.479 94.8949 149.152 97.7961C149.308 96.9778 150.059 91.1893 150.059 91.1893C152.926 89.422 156.056 87.6461 157.663 87.2398C159.391 86.8026 160.754 86.5474 161.639 86.4043C161.765 86.6529 161.945 87.0255 162.084 87.3856Z" fill="#2C4157"/>
<path d="M160.917 87.3877C160.684 87.6452 160.43 87.9385 160.157 88.2553C159.539 88.967 158.853 89.7583 158.211 90.3921C158.075 90.5276 157.941 90.6547 157.811 90.7717C157.775 90.8038 157.723 90.8479 157.648 90.9072C157.526 91.0038 157.346 91.1409 157.08 91.3341C156.801 91.5392 156.425 91.8085 155.923 92.1593C154.851 92.9134 153.202 94.0469 150.675 95.7499C150.519 95.8549 150.313 95.7279 150.338 95.5415C150.507 94.2977 150.694 92.8862 150.804 92.0423C150.833 91.8238 150.958 91.6304 151.146 91.5153C153.119 90.3156 154.566 89.5158 155.628 88.9855C156.052 88.7737 156.414 88.6059 156.724 88.472C156.992 88.3569 157.219 88.2687 157.414 88.2009C157.594 88.1365 157.744 88.0908 157.872 88.0585C157.902 88.0518 157.933 88.0433 157.961 88.0366C159.136 87.7417 160.139 87.5333 160.917 87.3877Z" fill="#3A5674"/>
<path d="M168.644 83.9941C168.644 83.9941 163.074 86.6578 162.394 87.1282C162.31 87.1861 162.21 87.274 162.094 87.3854C161.955 87.0252 161.774 86.6527 161.648 86.404C162.395 86.2847 162.802 86.2448 162.802 86.2448L167.65 84.0923C168.274 84.0242 168.644 83.9941 168.644 83.9941Z" fill="#2C4157"/>
<path d="M150.069 91.1875C150.069 91.1875 149.317 96.976 149.162 97.7943C144.408 100.981 139.478 104.233 138.773 104.694C137.86 105.291 135.918 105.998 134.68 106.526C134.68 106.526 141.973 96.721 143.313 95.5033C143.513 95.4159 143.763 95.2792 144.071 95.071C144.681 94.6598 147.247 92.9273 150.069 91.1875Z" fill="#2C4157"/>
<path d="M148.889 93.6118C148.752 94.6421 148.61 95.6909 148.5 96.472C148.427 96.994 148.134 97.4615 147.695 97.7548C147.591 97.8242 147.49 97.8921 147.386 97.9615C147.193 98.0903 147.002 98.219 146.81 98.3462C146.624 98.4715 146.437 98.5952 146.253 98.7172C145.868 98.9748 145.487 99.229 145.112 99.4797C141.705 101.747 138.822 103.646 138.302 103.987C138.035 104.161 137.65 104.355 137.211 104.555C139.283 101.806 141.613 98.7749 142.947 97.1719C143.375 96.6584 143.874 96.2112 144.433 95.845C144.451 95.8332 144.472 95.8213 144.49 95.806C144.507 95.7975 144.523 95.7857 144.54 95.7738L144.565 95.7567C144.931 95.5093 145.287 95.2721 145.629 95.0434C145.842 94.9027 146.049 94.7656 146.252 94.6317C146.444 94.5046 146.63 94.3826 146.815 94.2623C147.366 93.9014 147.879 93.5693 148.35 93.2677C148.603 93.1052 148.93 93.3136 148.889 93.6118Z" fill="#3A5674"/>
<path d="M174.474 81.9226H174.412C174.412 81.9066 174.412 81.8922 174.41 81.8763L174.472 81.8701C174.474 81.8882 174.474 81.9044 174.474 81.9226Z" fill="#69BC45"/>
<path d="M121.268 117.876C121.268 122.324 120.717 124.654 116.767 125.335C112.818 126.016 104.149 121.382 102.332 120.333C100.516 119.284 97.7995 117.34 96.954 115.685C96.954 115.683 96.9235 114.548 96.9574 113.899C96.9743 113.54 97.0066 113.186 97.0557 112.859C97.1607 112.144 97.3658 111.351 97.6116 110.597C97.6116 110.597 98.8164 113.386 99.3247 113.894C99.8331 114.403 109.717 119.73 110.762 120.333C111.808 120.936 114.194 120.842 114.194 120.842C115.829 120.842 117.12 120.575 118.125 120.204C120.481 119.334 121.268 117.876 121.268 117.876Z" fill="#3A5674"/>
<path d="M101.119 117.989C101.068 118.243 100.797 118.288 100.106 117.832C99.3858 117.357 97.6745 116.053 96.9356 114.528C96.8984 114.356 96.8696 114.192 96.8474 114.034C96.595 112.142 97.449 111.118 97.449 111.118C97.7066 111.698 98.1471 113.224 99.047 114.344C99.2538 114.602 99.4282 114.822 99.5757 115.012C99.6977 115.168 99.8011 115.303 99.8909 115.422C100.277 115.935 100.396 116.134 100.53 116.335C100.743 116.661 101.202 117.588 101.119 117.989Z" fill="#008D8D"/>
<path d="M142.537 95.5938C140.434 97.617 136.066 102.023 132.442 107.003C132.442 107.004 132.442 107.004 132.442 107.004C131.276 107.38 127.194 105.894 123.02 103.842C117.302 101.031 111.413 97.1594 112.63 95.57L112.632 95.5684C112.632 95.5684 112.632 95.5684 112.633 95.5684C116.322 90.4968 120.782 86.0234 122.839 84.0527C122.124 86.6826 140.594 96.6935 142.537 95.5938Z" fill="#2C4157"/>
<path d="M140.262 96.6469C138.077 98.8532 135.108 102.047 132.422 105.606C132.112 106.017 131.588 106.207 131.083 106.1C129.42 105.75 126.529 104.624 123.394 103.082C122.659 102.72 121.937 102.35 121.24 101.978C121.032 101.866 120.827 101.754 120.625 101.642C120.283 101.456 119.949 101.268 119.622 101.08C119.192 100.832 118.775 100.585 118.375 100.339C117.586 99.8561 116.862 99.3816 116.218 98.9241C113.578 97.0501 113.043 96.1993 113.021 96.0671L112.836 95.4826C116.03 91.0922 120.09 86.8781 122.249 84.748C122.276 84.7854 122.327 84.8141 122.333 84.8616C122.435 85.6055 123.262 86.5306 124.404 87.483C124.741 87.7642 125.109 88.049 125.492 88.3335C125.744 88.5182 126.005 88.7046 126.271 88.8894C126.466 89.0232 126.664 89.1587 126.864 89.2909C128.998 90.7159 131.26 91.9596 132.122 92.4325C134.773 93.8862 137.914 95.4147 140.134 96.1213C140.359 96.1946 140.429 96.4792 140.262 96.6469Z" fill="#3A5674"/>
<path d="M115.786 127.44C115.695 127.567 115.563 127.652 115.407 127.652C114.949 127.652 112.482 128.021 108.778 125.883C108.033 125.335 108.107 125.035 108.326 124.876C108.414 124.812 108.517 124.776 108.622 124.764C108.758 124.751 108.898 124.778 109.022 124.844C110.756 125.754 113.882 126.572 115.17 126.391C115.993 126.274 116.071 127.052 115.786 127.44Z" fill="#08979C"/>
<path d="M115.778 127.44C115.283 127.446 112.831 127.787 109.164 125.671C108.552 125.222 108.493 124.939 108.613 124.764C108.749 124.751 108.89 124.778 109.013 124.844C110.747 125.754 113.873 126.572 115.161 126.391C115.984 126.274 116.062 127.052 115.778 127.44Z" fill="#08979C"/>
<path d="M100.383 121.388C99.4591 120.856 97.8342 119.79 97.231 118.875C97.231 118.875 97.231 118.873 97.2291 118.873C97.0835 118.256 97.063 117.699 97.0547 117.365C97.0547 117.367 97.0565 117.367 97.0565 117.369C97.4802 118.136 100.186 120.302 100.581 120.531C100.779 120.644 100.961 120.995 100.976 121.247C100.991 121.498 100.842 121.654 100.383 121.388Z" fill="#08979C"/>
<path d="M100.974 121.248C100.876 121.272 100.725 121.236 100.508 121.111C99.5439 120.555 97.8476 119.442 97.2174 118.486C97.2174 118.486 97.2174 118.484 97.2155 118.484C97.1173 118.072 97.075 117.686 97.0547 117.369C97.4783 118.137 100.184 120.302 100.579 120.531C100.777 120.645 100.959 120.995 100.974 121.248Z" fill="#08979C"/>
<path d="M174.957 87.8813C174.955 88.0982 174.952 88.3455 174.947 88.6116C174.359 88.415 173.861 87.9999 173.583 87.4373C172.863 85.9835 172.641 84.0535 172.641 84.0535C173.239 83.4554 173.886 83.0691 174.355 82.8369V83.042C174.359 83.1996 174.366 83.3605 174.376 83.5232C174.442 84.5076 174.64 85.5582 174.787 86.2394C174.821 86.3936 174.852 86.5292 174.877 86.6393C174.928 86.8528 174.96 86.9765 174.96 86.9765C174.96 86.9765 174.962 87.3341 174.957 87.8813Z" fill="#3A5674"/>
<path d="M175.501 77.6575C175.146 77.7828 174.782 77.9591 174.426 78.1659C172.767 79.1147 171.234 80.6771 171.234 80.6771C160.754 75.8038 154.991 71.6186 153.625 70.5765C153.412 70.4121 153.305 70.3256 153.305 70.3256C153.305 70.3256 153.871 69.7478 154.687 69.0835C155.504 68.4175 156.572 67.6634 157.571 67.3076L175.501 77.6575Z" fill="#00A6A6"/>
<path d="M171.236 80.6767L171.209 81.2409C159.149 75.5069 153.281 70.891 153.281 70.891L153.307 70.3252C153.307 70.3252 153.413 70.4115 153.627 70.576C154.993 71.6179 160.755 75.8034 171.236 80.6767Z" fill="#08979C"/>
<path d="M175.505 77.6592L175.242 78.6353C173.321 79.2064 171.211 81.2431 171.211 81.2431L171.238 80.6788C171.238 80.6788 172.772 79.1166 174.43 78.1676C174.786 77.961 175.15 77.7847 175.505 77.6592Z" fill="#08979C"/>
<path d="M118.643 123.945C117.203 124.777 113.511 125.078 110.135 123.13C108.825 122.372 108.741 121.949 109.181 121.723C109.652 121.483 110.721 121.466 111.545 121.513C111.724 121.523 111.892 121.537 112.04 121.551C112.216 121.567 112.363 121.586 112.467 121.605C113.395 121.767 117.557 121.469 119.472 120.334C119.69 120.205 119.88 120.064 120.033 119.912C120.033 119.912 120.083 123.114 118.643 123.945Z" fill="#008D8D"/>
<path d="M101.547 115.796L109.912 120.413C109.912 120.413 108.175 121.388 107.328 121.388C106.48 121.388 103.053 119.135 102.625 118.888C102.198 118.641 101.547 115.796 101.547 115.796Z" fill="#2C4157"/>
<path d="M113.796 101.283C113.796 101.283 104.715 107.031 103.629 111.12C103.629 111.12 107.691 105.557 113.796 102.032C113.796 102.032 117.229 104.676 121.292 106.031C121.392 106.067 121.494 106.099 121.595 106.131L122.041 105.816C117.579 104.63 113.796 101.283 113.796 101.283Z" fill="#08979C"/>
<path d="M174.953 87.8807C173.453 87.5944 173.277 84.1545 173.277 84.1545L174.372 83.5225C174.438 84.5069 174.636 85.5575 174.784 86.2387C174.818 86.3928 174.848 86.5285 174.873 86.6386C174.924 86.8521 174.957 86.9757 174.957 86.9757C174.957 86.9757 174.958 87.3336 174.953 87.8807Z" fill="#DD5A29"/>
<path d="M119.477 120.332C119.477 122.082 118.648 123.326 118.648 123.326C118.648 123.326 118.055 123.728 116.918 123.95C117.633 122.597 117.408 121.11 117.408 121.11C118.195 120.913 118.929 120.657 119.477 120.332Z" fill="#F69220"/>
<path d="M116.914 123.948L116.894 123.952C116.773 123.976 116.646 123.997 116.514 124.015L116.477 124.021C115.426 124.164 114.005 124.135 112.239 123.606L111.812 123.493C111.729 123.466 109.025 122.518 109.182 121.72C109.653 121.479 110.723 121.463 111.546 121.51L112.041 121.547C112.217 121.564 112.365 121.583 112.468 121.602C113.081 121.708 115.106 121.615 116.962 121.212H116.963C117.111 121.179 117.257 121.146 117.399 121.11L117.404 121.108C117.404 121.108 117.629 122.596 116.914 123.948Z" fill="#CCE9E4"/>
<path d="M116.926 123.949L116.905 123.952L116.525 124.015L116.488 124.022C116.488 124.022 116.973 122.771 116.973 121.212H116.975L117.41 121.11L117.415 121.108C117.415 121.108 117.641 122.596 116.926 123.949Z" fill="#008D8D"/>
<path d="M97.4456 114.897C97.2388 114.617 97.0373 114.326 96.8474 114.034C96.595 112.142 97.449 111.118 97.449 111.118C97.5457 111.335 97.6676 111.686 97.8303 112.098C97.3847 113.206 97.4456 114.897 97.4456 114.897Z" fill="#F69220"/>
<path d="M101.122 117.991C100.532 118.063 99.3256 116.902 99.3256 116.902L99.0173 116.634C98.6038 116.297 98.17 115.828 97.7516 115.297L97.4481 114.899C97.4481 114.899 97.3872 113.208 97.8328 112.1C97.8988 112.266 97.9701 112.44 98.0481 112.62L98.0531 112.63C98.3021 113.198 98.6241 113.816 99.0495 114.346C99.2563 114.604 99.4308 114.824 99.5782 115.014L99.8934 115.424C100.28 115.938 100.398 116.136 100.532 116.337C100.746 116.663 101.205 117.59 101.122 117.991Z" fill="#CCE9E4"/>
<path d="M98.0533 112.63C98.0533 112.63 97.7516 113.471 97.7516 115.298L97.4481 114.9C97.4481 114.9 97.3872 113.208 97.8329 112.1L98.0482 112.62L98.0533 112.63Z" fill="#008D8D"/>
<path d="M168.643 83.9912C168.643 83.9912 168.274 84.0217 167.65 84.0895H167.648C167.648 84.0895 167.197 83.6728 166.349 82.9814C163.92 81.0041 158.239 76.7847 150.551 73.672H150.549C149.672 73.3178 148.768 72.9772 147.84 72.6553C148.463 72.5875 148.834 72.557 148.834 72.557C149.826 72.4384 152.198 73.3704 154.97 74.7497C161.035 77.7691 169.012 82.9406 168.643 83.9912Z" fill="#2C4157"/>
<path d="M166.343 82.9825C166.343 82.9825 162.864 82.8503 159.286 84.0534C159.286 84.0534 152.486 76.4876 144.395 74.3695C144.395 74.3695 147.624 73.3173 150.544 73.6731H150.545C158.233 76.7859 163.915 81.0051 166.343 82.9825Z" fill="#2C4157"/>
<path d="M159.542 83.0837C158.197 81.6772 151.863 76.0585 146.215 74.11C146.755 74.0423 148.248 73.8336 148.832 73.8336C149.205 73.8336 150.004 73.7971 150.339 73.8336C156.318 76.2678 161.033 80.0167 164 82.2298C162.762 82.3437 161.183 82.5846 159.542 83.0837Z" fill="#3A5674"/>
<path d="M125.5 88.3332C125.286 88.6569 125.074 88.9839 124.868 89.3109C124.327 90.1666 123.809 91.0325 123.317 91.9136L122.956 92.5761C122.836 92.7965 122.724 93.0217 122.607 93.2455C122.489 93.4659 122.379 93.6929 122.267 93.9182C122.157 94.1418 122.043 94.3672 121.941 94.5959C121.507 95.5007 121.125 96.4276 120.772 97.3629C120.413 98.2982 120.115 99.254 119.85 100.218C119.769 100.503 119.696 100.791 119.63 101.079C119.199 100.831 118.783 100.584 118.383 100.338C118.405 100.194 118.43 100.05 118.457 99.908C118.649 98.8659 118.905 97.8323 119.24 96.8274C119.572 95.8226 119.959 94.8346 120.406 93.879C121.296 91.9626 122.394 90.1528 123.646 88.4703C123.895 88.1364 124.149 87.8078 124.412 87.4824C124.749 87.7639 125.117 88.0485 125.5 88.3332Z" fill="#496D90"/>
<path d="M126.872 89.292C126.77 89.441 126.668 89.5919 126.568 89.7427C125.447 91.4473 124.425 93.2162 123.566 95.0599C123.124 95.9767 122.744 96.9189 122.397 97.8728C122.039 98.8234 121.759 99.8011 121.51 100.784L121.336 101.526L121.248 101.979C121.039 101.867 120.834 101.755 120.633 101.643C120.684 101.304 120.743 100.965 120.816 100.63C121.224 98.578 121.924 96.5937 122.8 94.7027C123.246 93.7605 123.729 92.8354 124.256 91.9373C124.791 91.0443 125.352 90.1665 125.962 89.3244C126.067 89.1786 126.172 89.0346 126.279 88.8906C126.474 89.0243 126.672 89.1597 126.872 89.292Z" fill="#496D90"/>
<path d="M146.254 98.7148C145.87 98.9724 145.489 99.2266 145.114 99.4773C145.068 99.3028 145.026 99.1281 144.987 98.9537C144.746 97.915 144.584 96.861 144.492 95.8036C144.509 95.7951 144.524 95.7833 144.541 95.7713L144.567 95.7543C144.933 95.5069 145.289 95.2697 145.631 95.041C145.685 95.5002 145.746 95.956 145.815 96.4119L145.909 96.9796C145.939 97.1676 145.978 97.3557 146.012 97.5438C146.044 97.7337 146.083 97.9199 146.122 98.1064C146.161 98.2944 146.198 98.4825 146.244 98.6673C146.248 98.6827 146.251 98.6996 146.254 98.7148Z" fill="#496D90"/>
<path d="M147.388 97.9588C147.194 98.0876 147.003 98.2163 146.811 98.3434C146.81 98.3384 146.81 98.3333 146.808 98.3282C146.635 97.5538 146.493 96.7727 146.391 95.9865C146.335 95.534 146.288 95.0817 146.254 94.6292C146.445 94.5021 146.632 94.38 146.816 94.2598C146.935 95.5052 147.118 96.7422 147.388 97.9588Z" fill="#496D90"/>
<path d="M157.081 91.3357C156.801 91.5408 156.425 91.8101 155.924 92.1609C155.754 91.1086 155.658 90.0478 155.629 88.9871C156.053 88.7752 156.415 88.6075 156.725 88.4736C156.734 88.5786 156.744 88.6837 156.754 88.787C156.829 89.5545 156.922 90.3172 157.039 91.0763L157.081 91.3357Z" fill="#496D90"/>
<path d="M158.207 90.3938C158.071 90.5293 157.937 90.6565 157.807 90.7735C157.771 90.8056 157.719 90.8497 157.644 90.909C157.632 90.8227 157.62 90.7378 157.608 90.6514C157.514 89.865 157.441 89.0752 157.412 88.2837C157.41 88.2567 157.41 88.2295 157.41 88.2024C157.59 88.138 157.741 88.0923 157.868 88.06C157.898 88.0533 157.929 88.0448 157.958 88.0381C157.963 88.1092 157.968 88.1805 157.973 88.2516C158.03 88.9683 158.107 89.6836 158.207 90.3938Z" fill="#496D90"/>
<path d="M128.625 108.526C128.095 108.84 127.579 109.193 127.078 109.559C126.573 109.921 126.086 110.308 125.602 110.698C124.64 111.485 123.716 112.318 122.822 113.182L122.157 113.837C121.934 114.053 121.727 114.285 121.508 114.507C121.294 114.733 121.07 114.95 120.865 115.184L120.234 115.873C120.02 116.099 119.82 116.338 119.615 116.573L118.999 117.277C118.595 117.752 118.202 118.236 117.792 118.709L117.79 118.711C117.765 118.74 117.721 118.743 117.692 118.718C117.665 118.695 117.66 118.655 117.68 118.626C118.039 118.113 118.403 117.601 118.777 117.098L119.358 116.358C119.552 116.111 119.747 115.865 119.953 115.628C120.359 115.15 120.767 114.672 121.199 114.216L121.52 113.871C121.628 113.756 121.734 113.641 121.847 113.531L122.513 112.864C122.734 112.641 122.971 112.434 123.2 112.218L123.546 111.897L123.902 111.587C124.376 111.174 124.862 110.775 125.363 110.394C125.864 110.014 126.375 109.646 126.905 109.306C127.436 108.967 127.974 108.643 128.552 108.376C128.593 108.357 128.643 108.375 128.662 108.416C128.68 108.455 128.666 108.501 128.629 108.523L128.625 108.526Z" fill="#E5E5E4"/>
<path d="M122.049 105.997C121.516 106.253 120.997 106.558 120.495 106.88L120.119 107.123C119.995 107.206 119.874 107.294 119.752 107.379C119.631 107.466 119.505 107.547 119.386 107.637L119.028 107.906C118.079 108.629 117.182 109.42 116.33 110.257C115.918 110.688 115.489 111.105 115.102 111.561C114.905 111.786 114.699 112.003 114.509 112.234L113.942 112.929L113.658 113.277L113.39 113.637L112.85 114.356C112.756 114.473 112.674 114.598 112.589 114.722L112.334 115.093C112.163 115.34 111.99 115.586 111.815 115.831L111.813 115.834C111.791 115.866 111.748 115.873 111.717 115.851C111.687 115.83 111.679 115.79 111.696 115.76C111.845 115.497 111.995 115.235 112.147 114.974L112.377 114.582C112.454 114.452 112.528 114.32 112.614 114.196L113.119 113.441L113.374 113.065L113.647 112.702L114.198 111.978C114.385 111.74 114.589 111.514 114.783 111.281C115.168 110.812 115.602 110.386 116.017 109.942C116.459 109.526 116.891 109.099 117.361 108.712L117.708 108.418L118.068 108.138L118.429 107.859C118.548 107.765 118.676 107.683 118.8 107.595L119.173 107.334C119.298 107.247 119.428 107.168 119.556 107.086C119.685 107.006 119.812 106.923 119.943 106.845L120.338 106.618C120.87 106.324 121.41 106.048 121.989 105.842C122.033 105.826 122.08 105.849 122.096 105.892C122.11 105.933 122.091 105.977 122.054 105.995L122.049 105.997Z" fill="#E5E5E4"/>
<path d="M111.203 98.2588C110.673 98.573 110.157 98.9262 109.656 99.2926C109.151 99.6544 108.664 100.041 108.18 100.431C107.218 101.218 106.295 102.052 105.4 102.916L104.735 103.57C104.512 103.786 104.305 104.019 104.086 104.24C103.872 104.466 103.648 104.683 103.443 104.917L102.812 105.606C102.598 105.832 102.398 106.071 102.193 106.306L101.577 107.01C101.173 107.485 100.78 107.97 100.37 108.442L100.368 108.444C100.343 108.473 100.299 108.477 100.27 108.451C100.243 108.428 100.239 108.388 100.258 108.359C100.617 107.846 100.981 107.335 101.355 106.831L101.936 106.091C102.13 105.845 102.325 105.598 102.531 105.362C102.937 104.883 103.346 104.406 103.777 103.949L104.098 103.604C104.206 103.489 104.312 103.374 104.425 103.264L105.091 102.597C105.312 102.374 105.55 102.167 105.778 101.951L106.124 101.631L106.48 101.321C106.954 100.908 107.441 100.509 107.941 100.127C108.442 99.7469 108.953 99.3795 109.484 99.0398C110.014 98.7005 110.553 98.3766 111.13 98.1092C111.172 98.09 111.221 98.1081 111.24 98.1499C111.258 98.1889 111.244 98.2347 111.208 98.2561L111.203 98.2588Z" fill="#E5E5E4"/>
<path d="M139.662 75.8666C139.348 75.9417 139.028 76.0538 138.718 76.1686C138.405 76.2828 138.098 76.4132 137.791 76.5424C137.488 76.6833 137.18 76.8095 136.883 76.9622C136.583 77.1093 136.282 77.2511 135.988 77.4109C135.693 77.5665 135.396 77.7185 135.106 77.8842L134.668 78.128C134.522 78.2083 134.376 78.2903 134.234 78.3777L133.37 78.8868C133.084 79.0607 132.803 79.2415 132.519 79.4182L132.092 79.6819L131.673 79.957L130.833 80.5076C130.277 80.8801 129.728 81.2644 129.174 81.6402L127.535 82.8058C126.994 83.2023 126.453 83.5994 125.904 83.987L125.902 83.9879C125.871 84.01 125.828 84.0026 125.806 83.9712C125.785 83.9419 125.79 83.9018 125.817 83.8787C126.326 83.4395 126.844 83.01 127.362 82.5797C127.888 82.1598 128.422 81.7494 128.956 81.3388C129.225 81.1368 129.499 80.9407 129.772 80.7439C130.047 80.5486 130.317 80.3473 130.595 80.1569L131.434 79.5932L131.855 79.3125L132.283 79.0428C133.42 78.3182 134.599 77.6541 135.816 77.0654C136.421 76.7663 137.046 76.5046 137.677 76.2594C137.997 76.1472 138.314 76.0306 138.641 75.9364C138.967 75.8401 139.291 75.7532 139.637 75.703C139.683 75.6965 139.725 75.7279 139.731 75.7734C139.737 75.8162 139.71 75.8561 139.669 75.8661L139.662 75.8666Z" fill="#E5E5E4"/>
<path d="M156.064 85.5758C155.75 85.6508 155.43 85.7629 155.12 85.8777C154.807 85.992 154.5 86.1224 154.193 86.2515C153.891 86.3924 153.582 86.5186 153.285 86.6714C152.986 86.8184 152.684 86.9603 152.39 87.12C152.095 87.2756 151.798 87.4276 151.508 87.5934L151.07 87.8371C150.924 87.9175 150.778 87.9995 150.636 88.0869L149.772 88.596C149.487 88.7699 149.205 88.9505 148.921 89.1273L148.495 89.391L148.075 89.6662L147.236 90.2168C146.679 90.5893 146.131 90.9736 145.576 91.3494L143.937 92.515C143.396 92.9114 142.855 93.3086 142.306 93.6962L142.305 93.6971C142.273 93.7192 142.23 93.7117 142.208 93.6804C142.187 93.651 142.193 93.6109 142.219 93.5879C142.729 93.1486 143.247 92.7192 143.765 92.2888C144.29 91.869 144.824 91.4585 145.358 91.0479C145.627 90.8459 145.901 90.6499 146.175 90.4531C146.449 90.2578 146.719 90.0564 146.997 89.866L147.837 89.3023L148.257 89.0216L148.685 88.7519C149.823 88.0274 151.001 87.3632 152.218 86.7745C152.824 86.4755 153.449 86.2138 154.079 85.9684C154.399 85.8561 154.717 85.7395 155.043 85.6454C155.37 85.5491 155.694 85.4622 156.04 85.412C156.085 85.4055 156.127 85.4368 156.134 85.4823C156.14 85.5252 156.112 85.565 156.071 85.575L156.064 85.5758Z" fill="#E5E5E4"/>
<path d="M151.404 97.8578C150.848 98.3379 150.269 98.7847 149.692 99.2365C149.107 99.677 148.517 100.111 147.921 100.537C146.729 101.388 145.507 102.197 144.264 102.971C143.954 103.166 143.64 103.355 143.326 103.543C143.011 103.73 142.7 103.924 142.382 104.105C141.744 104.465 141.113 104.837 140.463 105.175C140.139 105.346 139.819 105.524 139.493 105.689L138.514 106.188C138.187 106.353 137.855 106.507 137.524 106.663C137.193 106.82 136.861 106.973 136.528 107.124C136.493 107.14 136.452 107.125 136.436 107.09C136.421 107.057 136.434 107.019 136.464 107.001L136.466 107C137.101 106.636 137.75 106.304 138.381 105.936L139.336 105.402C139.655 105.225 139.967 105.036 140.283 104.853C141.544 104.121 142.793 103.369 144.029 102.594C145.269 101.828 146.488 101.027 147.703 100.221C148.312 99.819 148.913 99.4061 149.512 98.9897C150.114 98.578 150.708 98.1536 151.3 97.7283L151.301 97.7276C151.338 97.7007 151.39 97.7093 151.417 97.7466C151.442 97.7813 151.436 97.8299 151.404 97.8578Z" fill="#E5E5E4"/>
<path d="M89.2603 46.638C89.2603 59.7004 78.6711 70.2896 65.6087 70.2896C52.5462 70.2896 41.957 59.7004 41.957 46.638C41.957 33.5755 52.5462 22.9863 65.6087 22.9863C78.6711 22.9863 89.2603 33.5755 89.2603 46.638Z" fill="#08979C"/>
<path d="M227.17 46.638C227.17 59.7004 216.581 70.2896 203.519 70.2896C190.456 70.2896 179.867 59.7004 179.867 46.638C179.867 33.5755 190.456 22.9863 203.519 22.9863C216.581 22.9863 227.17 33.5755 227.17 46.638Z" fill="#08979C"/>
<path d="M157.885 26.6516C157.885 39.7141 147.296 50.3033 134.234 50.3033C121.171 50.3033 110.582 39.7141 110.582 26.6516C110.582 13.5892 121.171 3 134.234 3C147.296 3 157.885 13.5892 157.885 26.6516Z" fill="#08979C"/>
<path fill-rule="evenodd" clip-rule="evenodd" d="M65.6087 69.2896C78.1188 69.2896 88.2603 59.1481 88.2603 46.638C88.2603 34.1278 78.1188 23.9863 65.6087 23.9863C53.0985 23.9863 42.957 34.1278 42.957 46.638C42.957 59.1481 53.0985 69.2896 65.6087 69.2896ZM203.519 69.2896C216.029 69.2896 226.17 59.1481 226.17 46.638C226.17 34.1278 216.029 23.9863 203.519 23.9863C191.009 23.9863 180.867 34.1278 180.867 46.638C180.867 59.1481 191.009 69.2896 203.519 69.2896ZM134.234 49.3033C146.744 49.3033 156.885 39.1618 156.885 26.6516C156.885 14.1415 146.744 4 134.234 4C121.724 4 111.582 14.1415 111.582 26.6516C111.582 39.1618 121.724 49.3033 134.234 49.3033ZM134.234 50.3033C147.296 50.3033 157.885 39.7141 157.885 26.6516C157.885 13.5892 147.296 3 134.234 3C121.171 3 110.582 13.5892 110.582 26.6516C110.582 39.7141 121.171 50.3033 134.234 50.3033ZM89.2603 46.638C89.2603 59.7004 78.6711 70.2896 65.6087 70.2896C52.5462 70.2896 41.957 59.7004 41.957 46.638C41.957 33.5755 52.5462 22.9863 65.6087 22.9863C78.6711 22.9863 89.2603 33.5755 89.2603 46.638ZM227.17 46.638C227.17 59.7004 216.581 70.2896 203.519 70.2896C190.456 70.2896 179.867 59.7004 179.867 46.638C179.867 33.5755 190.456 22.9863 203.519 22.9863C216.581 22.9863 227.17 33.5755 227.17 46.638Z" fill="#08979C"/>
<path d="M89.2603 43.638C89.2603 56.7004 78.6711 67.2896 65.6087 67.2896C52.5462 67.2896 41.957 56.7004 41.957 43.638C41.957 30.5755 52.5462 19.9863 65.6087 19.9863C78.6711 19.9863 89.2603 30.5755 89.2603 43.638Z" fill="white"/>
<path d="M227.17 43.638C227.17 56.7004 216.581 67.2896 203.519 67.2896C190.456 67.2896 179.867 56.7004 179.867 43.638C179.867 30.5755 190.456 19.9863 203.519 19.9863C216.581 19.9863 227.17 30.5755 227.17 43.638Z" fill="white"/>
<path d="M157.885 23.6516C157.885 36.7141 147.296 47.3033 134.234 47.3033C121.171 47.3033 110.582 36.7141 110.582 23.6516C110.582 10.5892 121.171 0 134.234 0C147.296 0 157.885 10.5892 157.885 23.6516Z" fill="white"/>
<path fill-rule="evenodd" clip-rule="evenodd" d="M65.6087 66.2896C78.1188 66.2896 88.2603 56.1481 88.2603 43.638C88.2603 31.1278 78.1188 20.9863 65.6087 20.9863C53.0985 20.9863 42.957 31.1278 42.957 43.638C42.957 56.1481 53.0985 66.2896 65.6087 66.2896ZM203.519 66.2896C216.029 66.2896 226.17 56.1481 226.17 43.638C226.17 31.1278 216.029 20.9863 203.519 20.9863C191.009 20.9863 180.867 31.1278 180.867 43.638C180.867 56.1481 191.009 66.2896 203.519 66.2896ZM134.234 46.3033C146.744 46.3033 156.885 36.1618 156.885 23.6516C156.885 11.1415 146.744 1 134.234 1C121.724 1 111.582 11.1415 111.582 23.6516C111.582 36.1618 121.724 46.3033 134.234 46.3033ZM134.234 47.3033C147.296 47.3033 157.885 36.7141 157.885 23.6516C157.885 10.5892 147.296 0 134.234 0C121.171 0 110.582 10.5892 110.582 23.6516C110.582 36.7141 121.171 47.3033 134.234 47.3033ZM89.2603 43.638C89.2603 56.7004 78.6711 67.2896 65.6087 67.2896C52.5462 67.2896 41.957 56.7004 41.957 43.638C41.957 30.5755 52.5462 19.9863 65.6087 19.9863C78.6711 19.9863 89.2603 30.5755 89.2603 43.638ZM227.17 43.638C227.17 56.7004 216.581 67.2896 203.519 67.2896C190.456 67.2896 179.867 56.7004 179.867 43.638C179.867 30.5755 190.456 19.9863 203.519 19.9863C216.581 19.9863 227.17 30.5755 227.17 43.638Z" fill="#08979C"/>
<rect x="117.906" y="14.6582" width="32.6459" height="17.3223" rx="3" stroke="#00474F" stroke-width="2.5"/>
<path d="M122.463 20.5389C122.492 20.4739 122.54 20.4192 122.608 20.375C122.678 20.3281 122.75 20.3047 122.823 20.3047C122.893 20.3047 122.963 20.3281 123.033 20.375C123.106 20.4192 123.156 20.4739 123.182 20.5389L125.329 25.5201C125.352 25.5722 125.364 25.6255 125.364 25.6802C125.364 25.7869 125.325 25.8793 125.247 25.9573C125.171 26.0328 125.08 26.0706 124.974 26.0706C124.901 26.0706 124.829 26.0471 124.759 26.0003C124.689 25.9534 124.639 25.8975 124.611 25.8324L123.943 24.2826L121.718 24.2514L121.035 25.8363C121.009 25.9014 120.961 25.9573 120.89 26.0042C120.82 26.0536 120.748 26.0784 120.676 26.0784C120.569 26.0784 120.476 26.0406 120.398 25.9652C120.323 25.8871 120.285 25.7947 120.285 25.688C120.285 25.6333 120.297 25.58 120.32 25.5279L122.463 20.5389ZM122.823 21.6827L122.054 23.4745L123.603 23.4941L122.823 21.6827Z" fill="#00474F"/>
<path d="M125.95 23.0959V23.0451L125.946 20.7927C125.946 20.686 125.983 20.5949 126.059 20.5194C126.134 20.4439 126.224 20.4049 126.328 20.4023L127.355 20.3828C127.412 20.3802 127.468 20.3789 127.523 20.3789C127.577 20.3789 127.631 20.3789 127.683 20.3789C127.969 20.3789 128.248 20.4101 128.518 20.4725C128.789 20.535 129.031 20.6313 129.244 20.7614C129.46 20.8916 129.631 21.0607 129.756 21.2689C129.883 21.4745 129.947 21.7218 129.947 22.0106C129.947 22.3854 129.818 22.7081 129.561 22.9788C129.743 23.1115 129.891 23.2872 130.006 23.5058C130.12 23.7218 130.177 23.9729 130.177 24.2592C130.177 24.6288 130.098 24.9411 129.939 25.1961C129.78 25.4486 129.562 25.6411 129.283 25.7739C129.005 25.9066 128.685 25.9769 128.323 25.9847L126.352 25.9886H126.344C126.237 25.9886 126.145 25.9508 126.067 25.8754C125.991 25.7973 125.953 25.7049 125.953 25.5982L125.95 23.0959ZM129.166 22.0341C129.166 21.7972 129.086 21.6164 128.924 21.4914C128.765 21.3639 128.565 21.2767 128.323 21.2299C128.084 21.183 127.842 21.1596 127.597 21.1596C127.56 21.1596 127.523 21.1609 127.484 21.1635C127.445 21.1635 127.407 21.1635 127.371 21.1635L126.726 21.1752L126.73 22.6782L128.233 22.6548C128.392 22.6522 128.542 22.6339 128.682 22.6001C128.825 22.5637 128.941 22.5012 129.03 22.4127C129.121 22.3216 129.166 22.1954 129.166 22.0341ZM128.307 25.2039C128.656 25.1987 128.924 25.1245 129.112 24.9814C129.302 24.8357 129.397 24.5884 129.397 24.2397C129.397 23.93 129.294 23.7192 129.088 23.6073C128.883 23.4928 128.62 23.4355 128.3 23.4355H128.249L126.73 23.4589L126.734 25.2L128.307 25.2039Z" fill="#00474F"/>
<path d="M135.588 23.9118C135.682 23.9118 135.766 23.9495 135.842 24.025C135.92 24.0979 135.959 24.1798 135.959 24.2709C135.959 24.3438 135.946 24.4063 135.92 24.4583C135.79 24.7446 135.605 25.0113 135.365 25.2586C135.129 25.5032 134.846 25.6997 134.518 25.848C134.19 25.9964 133.822 26.0706 133.414 26.0706C133.01 26.0706 132.646 25.9938 132.32 25.8402C131.995 25.6867 131.717 25.4772 131.485 25.2117C131.256 24.9437 131.079 24.6366 130.954 24.2904C130.832 23.9417 130.771 23.5734 130.771 23.1857C130.771 22.8031 130.833 22.4387 130.958 22.0926C131.083 21.7465 131.261 21.4407 131.493 21.1752C131.725 20.9072 132.002 20.6964 132.324 20.5428C132.647 20.3893 133.006 20.3125 133.402 20.3125C133.803 20.3125 134.166 20.3841 134.491 20.5272C134.819 20.6677 135.103 20.8564 135.342 21.0932C135.584 21.3275 135.773 21.5851 135.908 21.8662C135.937 21.9208 135.951 21.9781 135.951 22.038C135.951 22.1343 135.916 22.2227 135.846 22.3034C135.778 22.3815 135.699 22.4205 135.607 22.4205C135.519 22.4205 135.438 22.4023 135.365 22.3659C135.295 22.3268 135.242 22.2696 135.205 22.1941C135.06 21.8922 134.831 21.6333 134.518 21.4173C134.209 21.2013 133.836 21.0932 133.402 21.0932C133.024 21.0932 132.697 21.1895 132.418 21.3821C132.142 21.5747 131.929 21.8311 131.778 22.1512C131.627 22.4687 131.551 22.8161 131.551 23.1935C131.551 23.5734 131.626 23.9222 131.774 24.2397C131.925 24.5572 132.138 24.8109 132.414 25.0009C132.693 25.1909 133.023 25.2859 133.406 25.2859C133.692 25.2859 133.954 25.2338 134.19 25.1297C134.43 25.023 134.637 24.8825 134.811 24.7081C134.985 24.5338 135.118 24.3464 135.209 24.146C135.28 23.9898 135.406 23.9118 135.588 23.9118Z" fill="#00474F"/>
<path d="M142.595 20.4062C142.705 20.4062 142.797 20.4452 142.872 20.5233C142.948 20.5988 142.986 20.6899 142.986 20.7966C142.986 20.8877 142.958 20.967 142.904 21.0347L141.326 23.1349L143.075 25.4499C143.13 25.5175 143.157 25.5969 143.157 25.688C143.157 25.7947 143.118 25.8871 143.04 25.9652C142.965 26.0406 142.874 26.0784 142.767 26.0784C142.712 26.0784 142.654 26.0628 142.591 26.0315C142.531 26.0003 142.485 25.9626 142.451 25.9183L140.839 23.7829L139.238 25.9105C139.204 25.9547 139.156 25.9925 139.094 26.0237C139.034 26.0575 138.976 26.0745 138.922 26.0745C138.815 26.0745 138.723 26.0367 138.645 25.9613C138.569 25.8832 138.531 25.7908 138.531 25.6841C138.531 25.5904 138.559 25.5097 138.613 25.4421L140.347 23.1349L138.754 21.023C138.699 20.9553 138.672 20.8759 138.672 20.7849C138.672 20.6781 138.71 20.5871 138.785 20.5116C138.863 20.4335 138.956 20.3945 139.062 20.3945C139.12 20.3945 139.178 20.4101 139.238 20.4413C139.3 20.4725 139.347 20.5103 139.379 20.5545L140.839 22.4869L142.279 20.5662C142.313 20.522 142.36 20.4843 142.42 20.453C142.482 20.4218 142.541 20.4062 142.595 20.4062Z" fill="#00474F"/>
<path d="M147.608 20.4062C147.717 20.4062 147.809 20.4452 147.885 20.5233C147.96 20.5988 147.998 20.6899 147.998 20.7966C147.998 20.8877 147.971 20.967 147.916 21.0347L146.339 23.1349L148.088 25.4499C148.142 25.5175 148.17 25.5969 148.17 25.688C148.17 25.7947 148.131 25.8871 148.053 25.9652C147.977 26.0406 147.886 26.0784 147.779 26.0784C147.725 26.0784 147.666 26.0628 147.604 26.0315C147.544 26.0003 147.497 25.9626 147.463 25.9183L145.851 23.7829L144.25 25.9105C144.217 25.9547 144.168 25.9925 144.106 26.0237C144.046 26.0575 143.989 26.0745 143.934 26.0745C143.827 26.0745 143.735 26.0367 143.657 25.9613C143.582 25.8832 143.544 25.7908 143.544 25.6841C143.544 25.5904 143.571 25.5097 143.626 25.4421L145.359 23.1349L143.766 21.023C143.712 20.9553 143.684 20.8759 143.684 20.7849C143.684 20.6781 143.722 20.5871 143.798 20.5116C143.876 20.4335 143.968 20.3945 144.075 20.3945C144.132 20.3945 144.191 20.4101 144.25 20.4413C144.313 20.4725 144.36 20.5103 144.391 20.5545L145.851 22.4869L147.291 20.5662C147.325 20.522 147.372 20.4843 147.432 20.453C147.494 20.4218 147.553 20.4062 147.608 20.4062Z" fill="#00474F"/>
<path d="M212.087 35.1791C211.951 35.0726 211.793 34.997 211.623 34.9577C211.454 34.9185 211.278 34.9167 211.107 34.9525C209.861 35.2062 208.575 35.2094 207.328 34.962C206.081 34.7145 204.899 34.2216 203.855 33.5136C203.66 33.382 203.428 33.3115 203.191 33.3115C202.953 33.3115 202.721 33.382 202.526 33.5136C201.482 34.2216 200.3 34.7145 199.053 34.962C197.806 35.2094 196.52 35.2062 195.274 34.9525C195.104 34.9167 194.927 34.9185 194.758 34.9577C194.588 34.997 194.43 35.0726 194.295 35.1791C194.159 35.2857 194.05 35.4204 193.976 35.5733C193.901 35.7263 193.863 35.8935 193.863 36.0628V44.5034C193.862 46.1278 194.261 47.7289 195.025 49.1734C195.79 50.618 196.898 51.8641 198.259 52.8081L202.514 55.7538C202.712 55.8904 202.948 55.9638 203.191 55.9638C203.433 55.9638 203.669 55.8904 203.867 55.7538L208.123 52.8081C209.483 51.8641 210.592 50.618 211.356 49.1734C212.121 47.7289 212.519 46.1278 212.518 44.5034V36.0628C212.519 35.8935 212.48 35.7263 212.406 35.5733C212.331 35.4204 212.222 35.2857 212.087 35.1791ZM210.186 44.5034C210.187 45.7664 209.878 47.0113 209.283 48.1346C208.689 49.2579 207.828 50.227 206.77 50.9613L203.191 53.4425L199.611 50.9613C198.554 50.227 197.692 49.2579 197.098 48.1346C196.504 47.0113 196.194 45.7664 196.195 44.5034V37.3657C198.639 37.569 201.087 37.0179 203.191 35.7909C205.294 37.0179 207.742 37.569 210.186 37.3657V44.5034ZM204.986 41.9089L201.85 44.9679L200.812 43.9482C200.593 43.7349 200.295 43.615 199.984 43.615C199.674 43.615 199.376 43.7349 199.157 43.9482C198.937 44.1616 198.814 44.4509 198.814 44.7526C198.814 45.0544 198.937 45.3437 199.157 45.5571L201.022 47.3698C201.13 47.476 201.259 47.5603 201.401 47.6178C201.544 47.6753 201.696 47.7049 201.85 47.7049C202.004 47.7049 202.156 47.6753 202.298 47.6178C202.44 47.5603 202.569 47.476 202.678 47.3698L206.688 43.5064C206.908 43.293 207.031 43.0037 207.031 42.702C207.031 42.4003 206.908 42.1109 206.688 41.8976C206.469 41.6842 206.171 41.5644 205.861 41.5644C205.55 41.5644 205.252 41.6842 205.033 41.8976L204.986 41.9089Z" fill="#00474F" stroke="white"/>
<path d="M61.1557 44.1595C61.5774 43.7066 61.815 43.1127 61.8219 42.4939C61.8219 41.826 61.5566 41.1854 61.0843 40.7131C60.612 40.2409 59.9714 39.9755 59.3035 39.9755C58.6356 39.9755 57.995 40.2409 57.5227 40.7131C57.0504 41.1854 56.7851 41.826 56.7851 42.4939C56.7921 43.1127 57.0296 43.7066 57.4514 44.1595C56.8642 44.4519 56.3589 44.8857 55.9809 45.4218C55.6029 45.9579 55.3642 46.5796 55.2861 47.2309C55.2666 47.4076 55.3182 47.5848 55.4294 47.7235C55.5406 47.8622 55.7023 47.951 55.879 47.9704C56.0557 47.9899 56.2329 47.9383 56.3716 47.8271C56.5103 47.7159 56.5991 47.5542 56.6186 47.3775C56.6981 46.732 57.0109 46.1378 57.4981 45.707C57.9852 45.2761 58.6132 45.0383 59.2635 45.0383C59.9139 45.0383 60.5418 45.2761 61.029 45.707C61.5162 46.1378 61.829 46.732 61.9085 47.3775C61.9271 47.5483 62.0109 47.7054 62.1425 47.8159C62.2741 47.9264 62.4433 47.9818 62.6147 47.9704H62.688C62.8627 47.9504 63.0223 47.862 63.1321 47.7248C63.2419 47.5875 63.2931 47.4124 63.2743 47.2376C63.202 46.5897 62.9708 45.9697 62.6012 45.4328C62.2316 44.8958 61.735 44.4584 61.1557 44.1595V44.1595ZM59.2835 43.6798C59.049 43.6798 58.8197 43.6103 58.6247 43.48C58.4296 43.3497 58.2776 43.1645 58.1879 42.9478C58.0981 42.7311 58.0746 42.4926 58.1204 42.2626C58.1662 42.0325 58.2791 41.8212 58.445 41.6554C58.6108 41.4895 58.8221 41.3766 59.0522 41.3308C59.2822 41.285 59.5207 41.3085 59.7374 41.3983C59.9541 41.488 60.1393 41.64 60.2696 41.8351C60.3999 42.0301 60.4694 42.2594 60.4694 42.4939C60.4694 42.8084 60.3445 43.1101 60.1221 43.3325C59.8997 43.5549 59.5981 43.6798 59.2835 43.6798V43.6798ZM63.9472 37.3105H54.6198C54.0897 37.3105 53.5813 37.5211 53.2065 37.896C52.8317 38.2708 52.6211 38.7792 52.6211 39.3093V48.6367C52.6211 49.1668 52.8317 49.6752 53.2065 50.05C53.5813 50.4248 54.0897 50.6354 54.6198 50.6354H63.9472C64.4773 50.6354 64.9857 50.4248 65.3606 50.05C65.7354 49.6752 65.946 49.1668 65.946 48.6367V39.3093C65.946 38.7792 65.7354 38.2708 65.3606 37.896C64.9857 37.5211 64.4773 37.3105 63.9472 37.3105ZM64.6135 48.6367C64.6135 48.8134 64.5433 48.9829 64.4183 49.1078C64.2934 49.2327 64.1239 49.3029 63.9472 49.3029H54.6198C54.4431 49.3029 54.2737 49.2327 54.1487 49.1078C54.0238 48.9829 53.9536 48.8134 53.9536 48.6367V39.3093C53.9536 39.1326 54.0238 38.9631 54.1487 38.8382C54.2737 38.7132 54.4431 38.643 54.6198 38.643H63.9472C64.1239 38.643 64.2934 38.7132 64.4183 38.8382C64.5433 38.9631 64.6135 39.1326 64.6135 39.3093V48.6367Z" fill="#00474F"/>
<rect x="67.9414" y="40.6416" width="9.32741" height="1.33249" rx="0.666244" fill="#00474F"/>
<rect x="67.9414" y="43.3076" width="9.32741" height="1.33249" rx="0.666244" fill="#00474F"/>
<rect x="67.9414" y="45.9707" width="7.32868" height="1.33249" rx="0.666244" fill="#00474F"/>
</svg>
